{"glyphs":{"0":{"ha":750,"x_min":128,"x_max":622,"o":"m 622 236 q 559 60 622 121 q 389 0 496 0 l 361 0 q 191 60 254 0 q 128 236 128 121 l 128 736 q 190 913 128 853 q 361 972 253 972 l 389 972 q 560 913 497 972 q 622 736 622 853 l 622 236 m 246 763 l 246 386 l 504 763 q 472 837 504 806 q 389 868 439 868 l 361 868 q 278 837 311 868 q 246 763 246 806 m 504 210 l 504 585 l 246 210 q 278 135 246 167 q 361 104 311 104 l 389 104 q 472 135 439 104 q 504 210 504 167 z "},"1":{"ha":750,"x_min":142,"x_max":607,"o":"m 607 0 l 156 0 l 156 104 l 338 104 l 338 863 l 142 790 l 142 903 l 324 972 l 456 972 l 456 104 l 607 104 l 607 0 z "},"2":{"ha":750,"x_min":146,"x_max":604,"o":"m 604 0 l 146 0 l 146 122 l 368 439 q 442 559 429 526 q 456 665 456 592 l 456 763 q 424 836 456 806 q 340 867 392 867 l 174 867 l 174 972 l 326 972 q 512 913 447 972 q 576 736 576 854 l 576 678 q 557 530 576 579 q 479 396 538 481 l 274 106 l 604 106 l 604 0 z "},"3":{"ha":750,"x_min":168,"x_max":582,"o":"m 582 219 q 526 52 582 104 q 346 0 471 0 l 168 0 l 168 104 l 358 104 q 436 128 411 104 q 461 206 461 153 l 461 349 q 433 422 461 394 q 360 449 406 449 l 211 449 l 211 553 l 346 553 q 418 581 389 553 q 447 654 447 608 l 447 768 q 423 844 447 821 q 346 868 399 868 l 168 868 l 168 972 l 329 972 q 568 756 568 972 l 568 668 q 492 507 568 561 q 582 336 582 457 l 582 219 z "},"4":{"ha":750,"x_min":121,"x_max":629,"o":"m 629 217 l 525 217 l 525 0 l 407 0 l 407 217 l 121 217 l 121 336 l 269 972 l 382 972 l 240 318 l 407 318 l 407 635 l 525 635 l 525 318 l 629 318 l 629 217 z "},"5":{"ha":750,"x_min":165,"x_max":583,"o":"m 583 219 q 528 52 583 104 q 347 0 472 0 l 165 0 l 165 104 l 360 104 q 438 128 413 104 q 463 206 463 153 l 463 382 q 435 455 463 428 q 361 482 407 482 l 179 482 l 179 972 l 563 972 l 563 868 l 297 868 l 297 586 l 354 586 q 522 533 461 586 q 583 369 583 481 l 583 219 z "},"6":{"ha":750,"x_min":135,"x_max":622,"o":"m 622 236 q 560 61 622 122 q 403 0 497 0 l 354 0 q 197 61 260 0 q 135 236 135 122 l 135 736 q 382 972 135 972 l 556 972 l 556 867 l 368 867 q 285 836 317 867 q 253 763 253 806 l 253 611 l 389 611 q 565 558 508 611 q 622 389 622 506 l 622 236 m 403 507 l 253 507 l 253 210 q 282 135 253 165 q 361 104 311 104 l 396 104 q 475 135 446 104 q 504 210 504 165 l 504 415 q 403 507 504 507 z "},"7":{"ha":750,"x_min":144,"x_max":596,"o":"m 144 868 l 144 972 l 596 972 l 596 838 l 351 0 l 228 0 l 481 868 l 144 868 z "},"8":{"ha":750,"x_min":119,"x_max":631,"o":"m 631 219 q 575 52 631 104 q 394 0 519 0 l 356 0 q 175 52 231 0 q 119 219 119 104 l 119 336 q 210 507 119 457 q 136 668 136 558 l 136 756 q 361 972 136 972 l 389 972 q 614 756 614 972 l 614 668 q 540 507 614 558 q 631 336 631 457 l 631 219 m 510 349 q 482 422 510 394 q 408 449 454 449 l 342 449 q 268 422 296 449 q 240 349 240 394 l 240 206 q 332 104 240 104 l 407 104 q 485 128 460 104 q 510 206 510 153 l 510 349 m 394 868 l 344 868 q 277 842 297 867 q 257 768 257 818 l 257 654 q 283 583 257 610 q 347 553 308 556 l 394 553 q 465 581 438 553 q 493 654 493 608 l 493 768 q 470 844 493 821 q 394 868 447 868 z "},"9":{"ha":750,"x_min":133,"x_max":621,"o":"m 133 736 q 196 911 133 850 q 353 972 258 972 l 401 972 q 558 911 496 972 q 621 736 621 850 l 621 236 q 374 0 621 0 l 214 0 l 214 106 l 388 106 q 471 136 439 106 q 503 210 503 167 l 503 361 l 367 361 q 190 414 247 361 q 133 583 133 467 l 133 736 m 353 465 l 503 465 l 503 763 q 474 838 503 807 q 394 868 444 868 l 360 868 q 281 838 310 868 q 251 763 251 807 l 251 557 q 353 465 251 465 z "},"\u0000":{"ha":0,"x_min":0,"x_max":0,"o":""},"\r":{"ha":750,"x_min":0,"x_max":0,"o":""}," ":{"ha":750,"x_min":0,"x_max":0,"o":""},"!":{"ha":750,"x_min":306,"x_max":444,"o":"m 444 0 l 306 0 l 306 139 l 444 139 l 444 0 m 433 289 l 315 289 l 315 972 l 433 972 l 433 289 z "},"\"":{"ha":750,"x_min":201,"x_max":549,"o":"m 201 972 l 333 972 l 333 847 l 306 629 l 229 629 l 201 847 l 201 972 m 417 972 l 549 972 l 549 847 l 521 629 l 444 629 l 417 847 l 417 972 z "},"#":{"ha":750,"x_min":111,"x_max":639,"o":"m 431 354 l 431 632 l 319 632 l 319 354 l 431 354 m 639 250 l 542 250 l 542 0 l 431 0 l 431 250 l 319 250 l 319 0 l 208 0 l 208 250 l 111 250 l 111 354 l 208 354 l 208 632 l 111 632 l 111 736 l 208 736 l 208 972 l 319 972 l 319 736 l 431 736 l 431 972 l 542 972 l 542 736 l 639 736 l 639 632 l 542 632 l 542 354 l 639 354 l 639 250 z "},"$":{"ha":750,"x_min":146,"x_max":603,"o":"m 433 -153 l 315 -153 l 315 0 l 169 0 l 169 106 l 367 106 q 450 136 418 106 q 482 210 482 167 l 482 326 q 460 394 482 368 q 396 419 439 419 l 368 419 q 206 480 265 419 q 146 656 146 540 l 146 694 q 315 922 146 886 l 315 1083 l 433 1083 l 433 931 l 581 931 l 581 825 l 382 825 q 299 794 331 825 q 267 721 267 764 l 267 629 q 294 558 267 586 q 367 529 322 529 l 394 529 q 548 472 493 529 q 603 300 603 415 l 603 236 q 433 7 603 44 l 433 -153 z "},"%":{"ha":750,"x_min":17,"x_max":732,"o":"m 732 492 l 17 390 l 17 476 l 732 578 l 732 492 m 401 739 q 357 606 401 651 q 232 561 313 561 l 221 561 q 96 606 140 561 q 51 739 51 651 l 51 794 q 96 927 51 882 q 221 972 140 972 l 232 972 q 357 927 313 972 q 401 794 401 882 l 401 739 m 304 724 l 304 810 q 286 867 304 844 q 232 889 268 889 l 221 889 q 167 867 185 889 q 149 810 149 844 l 149 724 q 167 667 149 689 q 221 644 185 644 l 232 644 q 286 667 268 644 q 304 724 304 689 m 693 178 q 649 45 693 90 q 524 0 604 0 l 513 0 q 388 45 432 0 q 343 178 343 90 l 343 233 q 388 366 343 321 q 513 411 432 411 l 524 411 q 649 366 604 411 q 693 233 693 321 l 693 178 m 596 163 l 596 249 q 578 306 596 283 q 524 328 560 328 l 513 328 q 458 306 476 328 q 440 249 440 283 l 440 163 q 458 106 440 128 q 513 83 476 83 l 524 83 q 578 106 560 83 q 596 163 596 128 z "},"&":{"ha":750,"x_min":115,"x_max":689,"o":"m 579 0 l 351 0 q 171 52 226 0 q 115 219 115 104 l 115 394 q 206 565 115 515 q 129 726 129 619 l 129 756 q 368 972 129 972 l 515 972 l 515 868 l 351 868 q 274 844 299 868 q 250 768 250 821 l 250 713 q 279 639 250 667 q 351 611 308 611 l 689 611 l 689 507 l 579 507 l 579 0 m 338 507 q 264 480 292 507 q 236 407 236 453 l 236 206 q 261 128 236 153 q 339 104 286 104 l 467 104 l 467 507 l 338 507 z "},"'":{"ha":750,"x_min":308,"x_max":440,"o":"m 308 972 l 440 972 l 440 847 l 413 629 l 336 629 l 308 847 l 308 972 z "},"(":{"ha":750,"x_min":236,"x_max":514,"o":"m 236 701 q 277 963 236 863 q 392 1139 318 1063 l 514 1139 q 386 941 418 1022 q 354 704 354 860 l 354 268 q 386 31 354 113 q 514 -167 418 -50 l 392 -167 q 277 10 318 -90 q 236 271 236 110 l 236 701 z "},")":{"ha":750,"x_min":236,"x_max":514,"o":"m 514 701 l 514 271 q 473 10 514 110 q 358 -167 432 -90 l 236 -167 q 364 31 332 -50 q 396 268 396 113 l 396 704 q 364 941 396 860 q 236 1139 332 1022 l 358 1139 q 473 963 432 1063 q 514 701 514 863 z "},"*":{"ha":750,"x_min":97,"x_max":653,"o":"m 653 758 l 449 715 l 596 544 l 496 472 l 374 669 l 247 472 l 150 546 l 299 715 l 97 760 l 135 871 l 331 792 l 313 1003 l 438 1003 l 419 792 l 618 868 l 653 758 z "},"+":{"ha":750,"x_min":110,"x_max":639,"o":"m 639 382 l 431 382 l 431 164 l 319 164 l 319 382 l 110 382 l 110 486 l 319 486 l 319 706 l 431 706 l 431 486 l 639 486 l 639 382 z "},",":{"ha":750,"x_min":278,"x_max":472,"o":"m 333 139 l 472 139 l 472 0 l 386 -194 l 278 -194 l 333 0 l 333 139 z "},"-":{"ha":750,"x_min":149,"x_max":600,"o":"m 600 382 l 149 382 l 149 486 l 600 486 l 600 382 z "},".":{"ha":750,"x_min":306,"x_max":444,"o":"m 444 0 l 306 0 l 306 139 l 444 139 l 444 0 z "},"/":{"ha":750,"x_min":69,"x_max":681,"o":"m 681 1125 l 186 -153 l 69 -153 l 564 1125 l 681 1125 z "},":":{"ha":750,"x_min":306,"x_max":444,"o":"m 444 0 l 306 0 l 306 139 l 444 139 l 444 0 m 444 556 l 306 556 l 306 694 l 444 694 l 444 556 z "},";":{"ha":750,"x_min":278,"x_max":472,"o":"m 333 139 l 472 139 l 472 0 l 386 -194 l 278 -194 l 333 0 l 333 139 m 472 556 l 333 556 l 333 694 l 472 694 l 472 556 z "},"<":{"ha":750,"x_min":111,"x_max":639,"o":"m 639 146 l 111 389 l 111 535 l 639 783 l 639 656 l 208 467 l 639 276 l 639 146 z "},"=":{"ha":750,"x_min":111,"x_max":639,"o":"m 639 243 l 111 243 l 111 347 l 639 347 l 639 243 m 639 521 l 111 521 l 111 625 l 639 625 l 639 521 z "},">":{"ha":750,"x_min":111,"x_max":639,"o":"m 639 389 l 111 146 l 111 276 l 550 467 l 111 656 l 111 783 l 639 535 l 639 389 z "},"?":{"ha":750,"x_min":175,"x_max":568,"o":"m 568 719 q 553 603 568 638 q 469 497 539 568 l 396 422 l 396 289 l 278 289 l 278 457 l 358 542 q 436 634 422 608 q 450 707 450 660 l 450 776 q 349 867 450 867 l 175 867 l 175 972 l 335 972 q 568 764 568 972 l 568 719 m 407 0 l 268 0 l 268 139 l 407 139 l 407 0 z "},"@":{"ha":750,"x_min":40,"x_max":710,"o":"m 488 0 l 231 0 q 86 45 132 0 q 40 194 40 90 l 40 764 q 92 923 40 874 q 263 972 144 972 l 492 972 q 659 924 608 972 q 710 764 710 876 l 710 310 q 676 193 710 226 q 583 160 642 160 q 461 243 469 160 q 350 200 422 200 q 246 235 278 200 q 214 360 214 271 l 214 560 q 260 709 214 669 q 428 749 307 749 l 528 749 l 528 293 q 569 236 528 236 q 604 249 596 236 q 613 300 613 261 l 613 778 q 506 885 613 885 l 249 885 q 163 858 189 885 q 138 778 138 832 l 138 181 q 231 88 138 88 l 488 88 l 488 0 m 308 351 q 319 299 308 318 q 363 281 329 281 q 415 302 397 281 q 433 353 433 324 l 433 669 l 413 669 q 331 649 353 669 q 308 568 308 629 l 308 351 z "},"A":{"ha":750,"x_min":63,"x_max":688,"o":"m 489 350 l 375 881 l 263 350 l 489 350 m 688 0 l 564 0 l 511 246 l 240 246 l 186 0 l 63 0 l 297 972 l 457 972 l 688 0 z "},"B":{"ha":750,"x_min":118,"x_max":632,"o":"m 632 219 q 577 50 632 100 q 396 0 522 0 l 118 0 l 118 972 l 379 972 q 560 922 503 972 q 618 756 618 872 l 618 676 q 542 515 618 569 q 632 344 632 465 l 632 219 m 497 663 l 497 768 q 473 844 497 821 q 396 868 449 868 l 239 868 l 239 561 l 396 561 q 468 589 439 561 q 497 663 497 617 m 511 206 l 511 357 q 483 430 511 403 q 410 457 456 457 l 239 457 l 239 104 l 408 104 q 486 128 461 104 q 511 206 511 153 z "},"C":{"ha":750,"x_min":151,"x_max":599,"o":"m 599 0 l 401 0 q 216 59 281 0 q 151 236 151 118 l 151 736 q 216 913 151 854 q 401 972 281 972 l 599 972 l 599 867 l 388 867 q 304 836 336 867 q 272 763 272 806 l 272 210 q 304 136 272 167 q 388 106 336 106 l 599 106 l 599 0 z "},"D":{"ha":750,"x_min":114,"x_max":636,"o":"m 636 219 q 581 50 636 100 q 400 0 526 0 l 114 0 l 114 972 l 383 972 q 572 922 508 972 q 636 756 636 871 l 636 219 m 515 206 l 515 768 q 488 841 515 814 q 414 868 460 868 l 235 868 l 235 104 l 413 104 q 490 128 465 104 q 515 206 515 153 z "},"E":{"ha":750,"x_min":143,"x_max":607,"o":"m 607 0 l 143 0 l 143 972 l 607 972 l 607 871 l 264 871 l 264 553 l 572 553 l 572 451 l 264 451 l 264 101 l 607 101 l 607 0 z "},"F":{"ha":750,"x_min":147,"x_max":611,"o":"m 611 871 l 268 871 l 268 539 l 576 539 l 576 438 l 268 438 l 268 0 l 147 0 l 147 972 l 611 972 l 611 871 z "},"G":{"ha":750,"x_min":131,"x_max":618,"o":"m 618 0 l 381 0 q 195 59 260 0 q 131 236 131 118 l 131 736 q 195 913 131 854 q 381 972 260 972 l 576 972 l 576 867 l 367 867 q 283 836 315 867 q 251 763 251 806 l 251 210 q 283 136 251 167 q 367 106 315 106 l 503 106 l 503 407 l 382 407 l 382 511 l 618 511 l 618 0 z "},"H":{"ha":750,"x_min":111,"x_max":639,"o":"m 639 0 l 518 0 l 518 447 l 232 447 l 232 0 l 111 0 l 111 972 l 232 972 l 232 550 l 518 550 l 518 972 l 639 972 l 639 0 z "},"I":{"ha":750,"x_min":189,"x_max":560,"o":"m 560 0 l 189 0 l 189 101 l 314 101 l 314 871 l 189 871 l 189 972 l 560 972 l 560 871 l 435 871 l 435 101 l 560 101 l 560 0 z "},"J":{"ha":750,"x_min":174,"x_max":569,"o":"m 569 236 q 505 59 569 118 q 319 0 440 0 l 174 0 l 174 106 l 333 106 q 417 136 385 106 q 449 210 449 167 l 449 868 l 225 868 l 225 972 l 569 972 l 569 236 z "},"K":{"ha":750,"x_min":113,"x_max":646,"o":"m 233 0 l 113 0 l 113 972 l 233 972 l 233 553 l 497 972 l 629 972 l 361 543 l 646 0 l 507 0 l 286 438 l 233 358 l 233 0 z "},"L":{"ha":750,"x_min":160,"x_max":590,"o":"m 590 0 l 160 0 l 160 972 l 281 972 l 281 106 l 590 106 l 590 0 z "},"M":{"ha":750,"x_min":74,"x_max":678,"o":"m 678 0 l 569 0 l 569 872 l 431 326 l 315 326 l 179 872 l 179 0 l 74 0 l 74 972 l 267 972 l 378 475 l 490 972 l 678 972 l 678 0 z "},"N":{"ha":750,"x_min":110,"x_max":639,"o":"m 639 0 l 440 0 l 222 869 l 222 0 l 110 0 l 110 972 l 307 972 l 526 103 l 526 972 l 639 972 l 639 0 z "},"O":{"ha":750,"x_min":97,"x_max":653,"o":"m 653 236 q 588 59 653 118 q 403 0 524 0 l 347 0 q 162 59 226 0 q 97 236 97 118 l 97 736 q 162 913 97 854 q 347 972 226 972 l 403 972 q 588 913 524 972 q 653 736 653 854 l 653 236 m 532 210 l 532 763 q 500 836 532 806 q 417 867 468 867 l 333 867 q 250 836 282 867 q 218 763 218 806 l 218 210 q 250 136 218 167 q 333 106 282 106 l 417 106 q 500 136 468 106 q 532 210 532 167 z "},"P":{"ha":750,"x_min":125,"x_max":626,"o":"m 626 597 q 390 378 626 378 l 246 378 l 246 0 l 125 0 l 125 972 l 388 972 q 626 756 626 972 l 626 597 m 506 583 l 506 768 q 481 844 506 821 q 404 868 457 868 l 246 868 l 246 482 l 404 482 q 481 506 457 482 q 506 583 506 531 z "},"Q":{"ha":750,"x_min":97,"x_max":722,"o":"m 403 0 l 347 0 q 162 59 226 0 q 97 236 97 118 l 97 736 q 162 913 97 854 q 347 972 226 972 l 403 972 q 588 913 524 972 q 653 736 653 854 l 653 236 q 621 99 653 154 l 722 -3 l 643 -82 l 536 25 q 403 0 482 0 m 532 210 l 532 763 q 500 836 532 806 q 417 867 468 867 l 333 867 q 250 836 282 867 q 218 763 218 806 l 218 210 q 250 136 218 167 q 333 106 282 106 l 417 106 q 500 136 468 106 q 532 210 532 167 z "},"R":{"ha":750,"x_min":97,"x_max":665,"o":"m 218 403 l 218 0 l 97 0 l 97 972 l 358 972 q 597 756 597 972 l 597 622 q 472 426 597 465 l 665 0 l 533 0 l 354 403 l 218 403 m 476 608 l 476 768 q 452 844 476 821 q 375 868 428 868 l 218 868 l 218 507 l 375 507 q 452 531 428 507 q 476 608 476 556 z "},"S":{"ha":750,"x_min":139,"x_max":610,"o":"m 610 236 q 545 59 610 118 q 360 0 481 0 l 163 0 l 163 106 l 374 106 q 457 136 425 106 q 489 210 489 167 l 489 354 q 467 422 489 396 q 403 447 446 447 l 361 447 q 199 508 258 447 q 139 683 139 568 l 139 736 q 203 913 139 854 q 389 972 268 972 l 588 972 l 588 867 l 375 867 q 292 836 324 867 q 260 763 260 806 l 260 657 q 288 585 260 614 q 360 557 315 557 l 401 557 q 555 500 500 557 q 610 328 610 443 l 610 236 z "},"T":{"ha":750,"x_min":93,"x_max":656,"o":"m 656 867 l 435 867 l 435 0 l 314 0 l 314 867 l 93 867 l 93 972 l 656 972 l 656 867 z "},"U":{"ha":750,"x_min":107,"x_max":642,"o":"m 642 236 q 577 59 642 118 q 392 0 513 0 l 357 0 q 172 59 236 0 q 107 236 107 118 l 107 972 l 228 972 l 228 210 q 260 136 228 167 q 343 106 292 106 l 406 106 q 489 136 457 106 q 521 210 521 167 l 521 972 l 642 972 l 642 236 z "},"V":{"ha":750,"x_min":78,"x_max":665,"o":"m 665 972 l 447 0 l 282 0 l 78 972 l 200 972 l 367 122 l 546 972 l 665 972 z "},"W":{"ha":750,"x_min":71,"x_max":674,"o":"m 674 972 l 626 0 l 451 0 l 372 394 l 285 0 l 118 0 l 71 972 l 174 972 l 215 104 l 331 563 l 417 563 l 535 104 l 578 972 l 674 972 z "},"X":{"ha":750,"x_min":71,"x_max":679,"o":"m 679 0 l 543 0 l 376 365 l 201 0 l 71 0 l 313 503 l 93 972 l 225 972 l 378 643 l 536 972 l 665 972 l 440 504 l 679 0 z "},"Y":{"ha":750,"x_min":61,"x_max":688,"o":"m 435 0 l 310 0 l 310 451 l 61 972 l 194 972 l 378 568 l 561 972 l 688 972 l 435 451 l 435 0 z "},"Z":{"ha":750,"x_min":121,"x_max":626,"o":"m 613 103 l 613 0 l 121 0 l 121 122 l 501 869 l 153 869 l 153 972 l 626 972 l 626 850 l 247 103 l 613 103 z "},"[":{"ha":750,"x_min":229,"x_max":521,"o":"m 521 -167 l 229 -167 l 229 1139 l 521 1139 l 521 1035 l 340 1035 l 340 -62 l 521 -62 l 521 -167 z "},"\\":{"ha":750,"x_min":69,"x_max":681,"o":"m 564 -153 l 69 1125 l 186 1125 l 681 -153 l 564 -153 z "},"]":{"ha":750,"x_min":229,"x_max":521,"o":"m 521 -167 l 229 -167 l 229 -62 l 410 -62 l 410 1035 l 229 1035 l 229 1139 l 521 1139 l 521 -167 z "},"^":{"ha":750,"x_min":99,"x_max":650,"o":"m 650 583 l 524 583 l 379 972 l 221 583 l 99 583 l 299 1056 l 457 1056 l 650 583 z "},"_":{"ha":750,"x_min":25,"x_max":725,"o":"m 725 -236 l 25 -236 l 25 -132 l 725 -132 l 725 -236 z "},"`":{"ha":750,"x_min":226,"x_max":515,"o":"m 515 806 l 396 806 l 226 993 l 371 993 l 515 806 z "},"a":{"ha":750,"x_min":93,"x_max":656,"o":"m 656 0 l 579 0 q 503 42 538 0 q 418 0 471 0 l 294 0 q 141 42 189 0 q 93 188 93 85 l 93 215 q 296 431 93 431 l 468 431 l 468 500 q 364 590 468 590 l 149 590 l 149 694 l 350 694 q 528 642 471 694 q 586 472 586 589 l 586 139 q 656 97 586 97 l 656 0 m 404 104 q 461 129 450 104 q 468 174 468 149 l 468 326 l 294 326 q 235 303 258 326 q 211 243 211 279 l 211 174 q 228 121 211 138 q 281 104 244 104 l 404 104 z "},"b":{"ha":750,"x_min":121,"x_max":629,"o":"m 629 222 q 572 53 629 106 q 393 0 514 0 l 121 0 l 121 972 l 239 972 l 239 667 q 343 694 281 694 l 393 694 q 572 642 515 694 q 629 472 629 590 l 629 222 m 329 590 q 261 566 283 590 q 239 514 239 542 l 239 104 l 407 104 q 511 194 511 104 l 511 500 q 407 590 511 590 l 329 590 z "},"c":{"ha":750,"x_min":167,"x_max":582,"o":"m 582 0 l 403 0 q 224 52 281 0 q 167 222 167 104 l 167 472 q 224 642 167 589 q 403 694 282 694 l 582 694 l 582 590 l 389 590 q 285 500 285 590 l 285 194 q 389 104 285 104 l 582 104 l 582 0 z "},"d":{"ha":750,"x_min":117,"x_max":632,"o":"m 632 0 l 521 0 l 521 32 q 410 0 475 0 l 353 0 q 174 52 231 0 q 117 222 117 104 l 117 472 q 174 642 117 589 q 353 694 232 694 l 514 694 l 514 972 l 632 972 l 632 0 m 424 104 q 492 128 469 104 q 514 181 514 153 l 514 590 l 339 590 q 235 500 235 590 l 235 194 q 339 104 235 104 l 424 104 z "},"e":{"ha":750,"x_min":131,"x_max":618,"o":"m 574 0 l 367 0 q 188 52 244 0 q 131 222 131 104 l 131 472 q 182 643 131 592 q 353 694 233 694 l 418 694 q 618 479 618 694 l 618 299 l 249 299 l 249 194 q 353 104 249 104 l 574 104 l 574 0 m 249 500 l 249 403 l 503 403 l 503 507 q 479 567 503 543 q 419 590 456 590 l 339 590 q 269 567 289 590 q 249 500 249 544 z "},"f":{"ha":750,"x_min":138,"x_max":611,"o":"m 611 868 l 422 868 q 387 856 400 868 q 374 826 374 844 l 374 694 l 597 694 l 597 590 l 374 590 l 374 104 l 542 104 l 542 0 l 138 0 l 138 104 l 256 104 l 256 590 l 138 590 l 138 694 l 256 694 l 256 819 q 296 931 256 890 q 400 972 336 972 l 611 972 l 611 868 z "},"g":{"ha":750,"x_min":100,"x_max":649,"o":"m 649 -49 q 417 -236 649 -236 l 128 -236 l 128 -132 l 431 -132 q 506 -112 481 -132 q 531 -62 531 -93 l 531 -18 q 431 51 531 51 l 190 51 l 190 243 q 100 438 100 292 l 100 472 q 158 642 100 589 q 336 694 215 694 l 628 694 l 628 438 q 571 274 628 333 q 419 215 514 215 l 308 215 l 308 156 l 417 156 q 649 -32 649 156 l 649 -49 m 419 319 q 485 347 463 319 q 510 406 507 375 l 510 590 l 322 590 q 218 500 218 590 l 218 410 q 322 319 218 319 l 419 319 z "},"h":{"ha":750,"x_min":121,"x_max":629,"o":"m 239 0 l 121 0 l 121 972 l 239 972 l 239 667 q 343 694 281 694 l 407 694 q 574 642 519 694 q 629 472 629 589 l 629 0 l 511 0 l 511 500 q 487 566 511 542 q 421 590 463 590 l 329 590 q 263 567 285 590 q 239 518 240 544 l 239 0 z "},"i":{"ha":750,"x_min":111,"x_max":639,"o":"m 440 847 l 308 847 l 308 972 l 440 972 l 440 847 m 639 0 l 315 0 l 315 590 l 111 590 l 111 694 l 433 694 l 433 104 l 639 104 l 639 0 z "},"j":{"ha":750,"x_min":190,"x_max":558,"o":"m 190 -132 l 386 -132 q 422 -120 408 -132 q 435 -90 435 -108 l 435 590 l 231 590 l 231 694 l 553 694 l 553 -83 q 513 -195 553 -154 q 408 -236 472 -236 l 190 -236 l 190 -132 m 558 847 l 426 847 l 426 972 l 558 972 l 558 847 z "},"k":{"ha":750,"x_min":133,"x_max":638,"o":"m 251 0 l 133 0 l 133 972 l 251 972 l 251 447 l 469 694 l 618 694 l 376 421 l 638 0 l 492 0 l 288 339 l 251 297 l 251 0 z "},"l":{"ha":750,"x_min":97,"x_max":653,"o":"m 653 0 l 419 0 q 337 33 372 0 q 301 139 301 67 l 301 868 l 97 868 l 97 972 l 419 972 l 419 146 q 431 114 419 124 q 468 104 442 104 l 653 104 l 653 0 z "},"m":{"ha":750,"x_min":60,"x_max":690,"o":"m 171 0 l 60 0 l 60 694 l 164 694 l 164 663 q 250 694 200 694 l 258 694 q 396 639 356 694 q 517 694 442 694 l 525 694 q 650 651 610 694 q 690 499 690 608 l 690 0 l 579 0 l 579 500 q 567 579 579 557 q 514 601 556 601 l 506 601 q 431 510 435 601 l 431 0 l 319 0 l 319 500 q 306 580 319 558 q 256 601 292 601 l 247 601 q 171 522 175 601 l 171 0 z "},"n":{"ha":750,"x_min":121,"x_max":629,"o":"m 239 0 l 121 0 l 121 694 l 232 694 l 232 661 q 343 694 275 694 l 407 694 q 574 642 519 694 q 629 472 629 589 l 629 0 l 511 0 l 511 500 q 487 566 511 542 q 421 590 463 590 l 329 590 q 261 566 283 590 q 239 514 239 542 l 239 0 z "},"o":{"ha":750,"x_min":115,"x_max":633,"o":"m 633 222 q 576 53 633 106 q 397 0 518 0 l 351 0 q 173 53 231 0 q 115 222 115 106 l 115 472 q 173 642 115 589 q 351 694 231 694 l 397 694 q 576 642 518 694 q 633 472 633 589 l 633 222 m 515 194 l 515 500 q 411 590 515 590 l 338 590 q 233 500 233 590 l 233 194 q 338 104 233 104 l 411 104 q 515 194 515 104 z "},"p":{"ha":750,"x_min":121,"x_max":629,"o":"m 239 -236 l 121 -236 l 121 694 l 232 694 l 232 661 q 343 694 275 694 l 393 694 q 572 642 515 694 q 629 472 629 590 l 629 222 q 572 53 629 106 q 393 0 514 0 l 239 0 l 239 -236 m 329 590 q 261 566 283 590 q 239 514 239 542 l 239 104 l 407 104 q 511 194 511 104 l 511 500 q 407 590 511 590 l 329 590 z "},"q":{"ha":750,"x_min":117,"x_max":632,"o":"m 632 -236 l 514 -236 l 514 28 q 410 0 471 0 l 353 0 q 174 52 231 0 q 117 222 117 104 l 117 472 q 174 642 117 589 q 353 694 232 694 l 632 694 l 632 -236 m 424 104 q 492 128 469 104 q 514 181 514 153 l 514 590 l 339 590 q 235 500 235 590 l 235 194 q 339 104 235 104 l 424 104 z "},"r":{"ha":750,"x_min":139,"x_max":606,"o":"m 510 0 l 139 0 l 139 104 l 240 104 l 240 590 l 139 590 l 139 694 l 351 694 l 351 657 q 463 694 397 694 l 606 694 l 606 583 l 449 583 q 382 555 404 583 q 358 497 360 526 l 358 104 l 510 104 l 510 0 z "},"s":{"ha":750,"x_min":164,"x_max":586,"o":"m 586 174 q 378 0 586 0 l 171 0 l 171 104 l 392 104 q 468 167 468 104 l 468 240 q 408 303 468 303 l 357 303 q 212 345 260 303 q 164 479 164 388 l 164 519 q 217 653 164 613 q 372 694 269 694 l 558 694 l 558 590 l 358 590 q 303 574 324 590 q 282 528 282 558 l 282 478 q 301 431 282 446 q 349 415 319 415 l 396 415 q 586 236 586 415 l 586 174 z "},"t":{"ha":750,"x_min":149,"x_max":601,"o":"m 601 0 l 426 0 q 318 46 356 0 q 281 167 281 92 l 281 590 l 149 590 l 149 694 l 281 694 l 281 861 l 399 861 l 399 694 l 601 694 l 601 590 l 399 590 l 399 160 q 461 104 399 104 l 601 104 l 601 0 z "},"u":{"ha":750,"x_min":129,"x_max":621,"o":"m 621 0 l 510 0 l 510 32 q 399 0 464 0 l 351 0 q 184 53 239 0 q 129 222 129 106 l 129 694 l 247 694 l 247 194 q 272 128 247 153 q 338 104 296 104 l 413 104 q 478 126 457 104 q 503 176 500 149 l 503 694 l 621 694 l 621 0 z "},"v":{"ha":750,"x_min":89,"x_max":661,"o":"m 661 694 l 461 0 l 290 0 l 89 694 l 217 694 l 379 96 l 538 694 l 661 694 z "},"w":{"ha":750,"x_min":49,"x_max":701,"o":"m 701 694 l 578 0 l 444 0 l 378 349 l 303 0 l 174 0 l 49 694 l 167 694 l 246 143 l 338 569 l 428 569 l 511 143 l 590 694 l 701 694 z "},"x":{"ha":750,"x_min":90,"x_max":658,"o":"m 658 0 l 519 0 l 374 263 l 221 0 l 90 0 l 307 358 l 107 694 l 244 694 l 376 461 l 511 694 l 640 694 l 438 364 l 658 0 z "},"y":{"ha":750,"x_min":88,"x_max":661,"o":"m 192 -132 l 250 -132 q 300 -119 283 -132 q 325 -76 317 -107 l 344 0 l 317 0 l 88 694 l 215 694 l 389 113 l 540 694 l 661 694 l 446 -75 q 377 -206 419 -176 q 258 -236 335 -236 l 192 -236 l 192 -132 z "},"z":{"ha":750,"x_min":147,"x_max":603,"o":"m 589 103 l 589 0 l 147 0 l 147 111 l 472 592 l 175 592 l 175 694 l 603 694 l 603 571 l 281 103 l 589 103 z "},"{":{"ha":750,"x_min":204,"x_max":544,"o":"m 204 410 l 204 563 q 281 580 260 563 q 303 651 303 597 l 303 969 q 338 1101 303 1063 q 454 1139 372 1139 l 544 1139 l 544 1042 l 474 1042 q 426 1031 440 1042 q 411 990 411 1021 l 411 651 q 377 538 411 582 q 293 485 343 493 q 377 435 343 479 q 411 321 411 390 l 411 -18 q 426 -59 411 -49 q 474 -69 440 -69 l 544 -69 l 544 -167 l 454 -167 q 338 -128 372 -167 q 303 3 303 -90 l 303 321 q 281 392 303 375 q 204 410 260 410 z "},"|":{"ha":750,"x_min":319,"x_max":431,"o":"m 431 -153 l 319 -153 l 319 1125 l 431 1125 l 431 -153 z "},"}":{"ha":750,"x_min":204,"x_max":544,"o":"m 544 563 l 544 410 q 467 392 489 410 q 446 321 446 375 l 446 3 q 411 -128 446 -90 q 294 -167 376 -167 l 204 -167 l 204 -69 l 275 -69 q 323 -59 308 -69 q 338 -18 338 -49 l 338 321 q 372 435 338 390 q 456 485 406 479 q 372 538 406 493 q 338 651 338 582 l 338 990 q 323 1031 338 1021 q 275 1042 308 1042 l 204 1042 l 204 1139 l 294 1139 q 411 1101 376 1139 q 446 969 446 1063 l 446 651 q 467 580 446 597 q 544 563 489 563 z "},"~":{"ha":750,"x_min":139,"x_max":611,"o":"m 274 529 l 294 529 q 386 501 311 529 q 476 474 461 474 l 490 474 q 585 511 506 474 l 611 524 l 611 413 q 489 364 513 364 l 468 364 q 381 392 460 364 q 288 419 303 419 l 274 419 q 168 382 256 419 l 139 369 l 139 481 q 274 529 247 529 z "}," ":{"ha":750,"x_min":0,"x_max":0,"o":""},"¡":{"ha":750,"x_min":306,"x_max":444,"o":"m 306 694 l 444 694 l 444 556 l 306 556 l 306 694 m 317 406 l 435 406 l 435 -278 l 317 -278 l 317 406 z "},"¢":{"ha":750,"x_min":167,"x_max":582,"o":"m 472 -153 l 361 -153 l 361 0 q 214 60 261 8 q 167 221 167 113 l 167 471 q 214 630 167 578 q 361 690 261 682 l 361 833 l 472 833 l 472 693 l 582 693 l 582 589 l 389 589 q 285 499 285 589 l 285 193 q 389 103 285 103 l 582 103 l 582 -1 l 472 -1 l 472 -153 z "},"£":{"ha":750,"x_min":128,"x_max":621,"o":"m 128 472 l 128 574 l 225 574 l 225 736 q 290 913 225 854 q 475 972 354 972 l 610 972 l 610 867 l 461 867 q 378 836 410 867 q 346 763 346 806 l 346 574 l 524 574 l 524 472 l 346 472 l 346 101 l 621 101 l 621 0 l 128 0 l 128 101 l 225 101 l 225 472 l 128 472 z "},"¤":{"ha":750,"x_min":19,"x_max":731,"o":"m 101 350 l 101 486 q 118 596 101 553 l 19 696 l 99 775 l 193 681 q 338 708 244 708 l 411 708 q 556 679 501 708 l 651 775 l 731 696 l 629 594 q 647 486 647 553 l 647 350 q 631 243 647 286 l 731 143 l 651 64 l 558 157 q 411 128 503 128 l 338 128 q 192 157 242 128 l 99 64 l 19 143 l 118 242 q 101 350 101 286 m 529 322 l 529 514 q 425 604 529 604 l 324 604 q 219 514 219 604 l 219 322 q 324 232 219 232 l 425 232 q 529 322 529 232 z "},"¥":{"ha":750,"x_min":76,"x_max":674,"o":"m 617 160 l 436 160 l 436 0 l 311 0 l 311 160 l 131 160 l 131 264 l 311 264 l 311 368 l 131 368 l 131 472 l 307 472 l 76 972 l 210 972 l 379 593 l 547 972 l 674 972 l 439 472 l 617 472 l 617 368 l 436 368 l 436 264 l 617 264 l 617 160 z "},"¦":{"ha":750,"x_min":319,"x_max":431,"o":"m 431 -153 l 319 -153 l 319 347 l 431 347 l 431 -153 m 431 625 l 319 625 l 319 1125 l 431 1125 l 431 625 z "},"§":{"ha":750,"x_min":157,"x_max":592,"o":"m 157 493 q 218 642 157 597 q 176 764 176 686 l 176 778 q 385 972 176 972 l 557 972 l 557 868 l 371 868 q 316 852 338 868 q 294 806 294 836 l 294 750 q 361 688 294 688 l 401 688 q 592 486 592 688 l 592 479 q 531 331 592 385 q 572 208 572 300 l 572 194 q 364 0 572 0 l 192 0 l 192 104 l 378 104 q 433 120 411 104 q 454 167 454 136 l 454 222 q 393 285 454 285 l 347 285 q 157 486 157 285 l 157 493 m 401 583 l 324 583 q 275 521 275 583 l 275 458 q 349 389 275 389 l 425 389 q 474 451 474 389 l 474 514 q 458 565 474 547 q 401 583 443 583 z "},"¨":{"ha":750,"x_min":176,"x_max":572,"o":"m 572 826 l 454 826 l 454 938 l 572 938 l 572 826 m 294 826 l 176 826 l 176 938 l 294 938 l 294 826 z "},"©":{"ha":750,"x_min":35,"x_max":715,"o":"m 496 218 l 393 218 q 243 349 243 218 l 243 624 q 393 754 243 754 l 497 754 l 497 683 l 386 683 q 339 667 356 683 q 322 625 322 650 l 322 347 q 339 306 322 322 q 386 289 356 289 l 496 289 l 496 218 m 715 236 q 656 60 715 119 q 489 0 596 0 l 261 0 q 94 60 154 0 q 35 236 35 119 l 35 736 q 94 913 35 853 q 261 972 154 972 l 489 972 q 656 913 596 972 q 715 736 715 853 l 715 236 m 615 204 l 615 767 q 581 848 615 813 q 489 883 547 883 l 261 883 q 168 848 201 883 q 135 767 135 813 l 135 204 q 168 123 135 158 q 261 88 201 88 l 489 88 q 582 123 549 88 q 615 204 615 158 z "},"ª":{"ha":750,"x_min":174,"x_max":575,"o":"m 575 450 l 513 450 q 457 478 481 450 q 397 450 433 450 l 325 450 q 210 483 246 450 q 174 592 174 515 l 174 613 q 326 774 174 774 l 429 774 l 429 826 q 356 888 429 888 l 215 888 l 215 972 l 346 972 q 480 933 436 972 q 524 806 524 893 l 524 554 q 575 524 524 524 l 575 450 m 553 0 l 204 0 l 204 104 l 553 104 l 553 0 m 381 532 q 415 542 403 532 q 428 560 426 551 q 429 583 429 568 l 429 693 l 331 693 q 285 676 303 693 q 268 631 268 658 l 268 586 q 319 532 268 532 l 381 532 z "},"«":{"ha":750,"x_min":156,"x_max":593,"o":"m 371 128 l 279 128 l 156 415 l 279 703 l 371 703 l 283 415 l 371 128 m 593 128 l 501 128 l 378 415 l 501 703 l 593 703 l 506 415 l 593 128 z "},"¬":{"ha":750,"x_min":86,"x_max":663,"o":"m 663 147 l 544 147 l 544 382 l 86 382 l 86 486 l 663 486 l 663 147 z "},"­":{"ha":750,"x_min":149,"x_max":600,"o":"m 600 382 l 149 382 l 149 486 l 600 486 l 600 382 z "},"®":{"ha":750,"x_min":35,"x_max":715,"o":"m 715 236 q 656 60 715 119 q 489 0 596 0 l 261 0 q 94 60 154 0 q 35 236 35 119 l 35 736 q 94 913 35 853 q 261 972 154 972 l 489 972 q 656 913 596 972 q 715 736 715 853 l 715 236 m 615 204 l 615 767 q 581 848 615 813 q 489 883 547 883 l 261 883 q 168 848 201 883 q 135 767 135 813 l 135 204 q 168 123 135 158 q 261 88 201 88 l 489 88 q 582 123 549 88 q 615 204 615 158 m 313 440 l 313 221 l 235 221 l 235 754 l 383 754 q 528 635 528 754 l 528 561 q 453 453 528 475 l 568 221 l 483 221 l 375 440 l 313 440 m 443 560 l 443 635 q 383 689 443 689 l 313 689 l 313 504 l 383 504 q 443 560 443 504 z "},"¯":{"ha":750,"x_min":197,"x_max":551,"o":"m 551 840 l 197 840 l 197 938 l 551 938 l 551 840 z "},"°":{"ha":750,"x_min":179,"x_max":571,"o":"m 571 717 q 521 594 571 636 q 394 551 471 551 l 356 551 q 229 594 279 551 q 179 717 179 636 l 179 808 q 228 931 179 889 q 356 974 278 974 l 394 974 q 522 931 472 974 q 571 808 571 889 l 571 717 m 475 713 l 475 813 q 452 865 475 843 q 394 888 429 888 l 356 888 q 298 865 321 888 q 275 813 275 843 l 275 713 q 298 660 275 682 q 356 638 321 638 l 394 638 q 452 660 429 638 q 475 713 475 682 z "},"±":{"ha":750,"x_min":111,"x_max":639,"o":"m 639 382 l 431 382 l 431 199 l 319 199 l 319 382 l 111 382 l 111 486 l 319 486 l 319 706 l 431 706 l 431 486 l 639 486 l 639 382 m 639 0 l 111 0 l 111 104 l 639 104 l 639 0 z "},"²":{"ha":750,"x_min":208,"x_max":542,"o":"m 542 285 l 208 285 l 208 386 l 364 599 q 422 688 410 661 q 433 765 433 714 l 433 815 q 349 883 433 883 l 229 883 l 229 972 l 339 972 q 488 933 442 972 q 535 807 535 893 l 535 775 q 506 631 535 675 q 460 567 496 615 l 317 374 l 542 374 l 542 285 z "},"³":{"ha":750,"x_min":219,"x_max":529,"o":"m 529 450 q 488 324 529 363 q 353 285 447 285 l 219 285 l 219 374 l 349 374 q 426 443 426 374 l 426 519 q 406 572 426 553 q 350 592 385 592 l 251 592 l 251 681 l 339 681 q 394 699 372 681 q 415 753 415 718 l 415 811 q 397 867 415 851 q 339 883 379 883 l 219 883 l 219 972 l 340 972 q 519 810 519 972 l 519 761 q 458 640 519 682 q 529 513 529 603 l 529 450 z "},"´":{"ha":750,"x_min":233,"x_max":522,"o":"m 353 806 l 233 806 l 378 993 l 522 993 l 353 806 z "},"µ":{"ha":750,"x_min":143,"x_max":607,"o":"m 261 -236 l 143 -236 l 143 694 l 261 694 l 261 194 q 285 128 261 153 q 351 104 310 104 l 399 104 q 467 128 444 104 q 489 181 489 153 l 489 694 l 607 694 l 607 0 l 496 0 l 496 32 q 385 0 450 0 l 365 0 q 261 14 303 0 l 261 -236 z "},"¶":{"ha":750,"x_min":86,"x_max":629,"o":"m 442 0 l 326 0 l 326 519 l 318 519 q 141 567 196 519 q 86 732 86 615 l 86 750 q 142 920 86 868 q 318 972 197 972 l 442 972 l 442 875 l 303 875 q 226 848 253 875 q 199 778 199 821 l 199 704 q 303 614 199 614 l 442 614 l 442 0 m 629 0 l 518 0 l 518 972 l 629 972 l 629 0 z "},"·":{"ha":750,"x_min":306,"x_max":444,"o":"m 444 361 l 306 361 l 306 500 l 444 500 l 444 361 z "},"¸":{"ha":750,"x_min":254,"x_max":494,"o":"m 372 -278 l 254 -278 l 254 -189 l 347 -189 q 393 -146 393 -189 q 381 -114 393 -122 q 344 -106 369 -106 l 276 -106 l 276 69 l 374 69 l 374 -29 q 466 -53 438 -29 q 494 -133 494 -78 q 483 -217 494 -189 q 450 -258 471 -246 q 372 -278 417 -278 z "},"¹":{"ha":750,"x_min":203,"x_max":546,"o":"m 546 285 l 214 285 l 214 374 l 340 374 l 340 879 l 203 825 l 203 919 l 329 972 l 443 972 l 443 374 l 546 374 l 546 285 z "},"º":{"ha":750,"x_min":183,"x_max":567,"o":"m 567 0 l 183 0 l 183 104 l 567 104 l 567 0 m 556 619 q 513 492 556 532 q 379 453 469 453 l 365 453 q 231 492 274 453 q 188 619 188 532 l 188 808 q 231 935 188 896 q 365 975 274 975 l 379 975 q 513 935 469 975 q 556 808 556 896 l 556 619 m 461 604 l 461 824 q 383 890 461 890 l 360 890 q 282 824 282 890 l 282 604 q 360 538 282 538 l 383 538 q 461 604 461 538 z "},"»":{"ha":750,"x_min":156,"x_max":593,"o":"m 469 128 l 378 128 l 465 415 l 378 703 l 469 703 l 593 415 l 469 128 m 247 128 l 156 128 l 243 415 l 156 703 l 247 703 l 371 415 l 247 128 z "},"¼":{"ha":750,"x_min":15,"x_max":733,"o":"m 257 285 l 40 285 l 40 374 l 107 374 l 107 875 l 15 821 l 15 919 l 110 972 l 210 972 l 210 374 l 257 374 l 257 285 m 733 163 l 692 163 l 692 0 l 594 0 l 594 163 l 454 163 l 454 265 l 529 688 l 625 688 l 539 251 l 589 251 l 626 450 l 692 450 l 692 251 l 733 251 l 733 163 m 624 1125 l 268 -153 l 165 -153 l 521 1125 l 624 1125 z "},"½":{"ha":750,"x_min":15,"x_max":743,"o":"m 257 285 l 40 285 l 40 374 l 107 374 l 107 875 l 15 821 l 15 919 l 110 972 l 210 972 l 210 374 l 257 374 l 257 285 m 743 0 l 507 0 l 507 101 l 615 342 q 631 394 628 369 q 635 481 635 418 l 635 544 q 578 599 635 599 l 528 599 l 528 688 l 568 688 q 701 654 667 688 q 736 536 736 621 l 736 490 q 732 364 736 397 q 711 300 728 331 l 613 89 l 743 89 l 743 0 m 629 1125 l 274 -153 l 171 -153 l 507 1125 l 629 1125 z "},"¾":{"ha":750,"x_min":29,"x_max":733,"o":"m 275 450 q 238 323 275 361 q 107 285 200 285 l 29 285 l 29 371 l 103 371 q 159 387 140 371 q 178 440 178 403 l 178 522 q 158 575 178 556 q 104 594 138 594 l 61 594 l 61 678 l 93 678 q 147 697 126 678 q 167 750 167 715 l 167 814 q 150 870 167 854 q 93 886 133 886 l 29 886 l 29 972 l 94 972 q 224 933 182 972 q 265 810 265 894 l 265 761 q 204 640 265 682 q 275 513 275 603 l 275 450 m 733 163 l 692 163 l 692 0 l 594 0 l 594 163 l 454 163 l 454 265 l 529 688 l 625 688 l 539 251 l 589 251 l 626 450 l 692 450 l 692 251 l 733 251 l 733 163 m 615 1125 l 260 -153 l 157 -153 l 513 1125 l 615 1125 z "},"¿":{"ha":750,"x_min":182,"x_max":575,"o":"m 343 694 l 482 694 l 482 556 l 343 556 l 343 694 m 182 -25 q 197 92 182 57 q 281 197 211 126 l 354 272 l 354 406 l 472 406 l 472 238 l 392 153 q 315 60 329 88 q 300 -12 300 33 l 300 -82 q 401 -172 300 -172 l 575 -172 l 575 -278 l 415 -278 q 182 -69 182 -278 l 182 -25 z "},"À":{"ha":750,"x_min":63,"x_max":688,"o":"m 496 1008 l 381 1008 l 197 1168 l 351 1168 l 496 1008 m 489 350 l 375 881 l 263 350 l 489 350 m 688 0 l 564 0 l 511 246 l 240 246 l 186 0 l 63 0 l 297 972 l 457 972 l 688 0 z "},"Á":{"ha":750,"x_min":63,"x_max":688,"o":"m 367 1008 l 251 1008 l 396 1168 l 550 1168 l 367 1008 m 489 350 l 375 881 l 251 350 l 489 350 m 688 0 l 564 0 l 511 246 l 240 246 l 186 0 l 63 0 l 297 972 l 457 972 l 688 0 z "},"Â":{"ha":750,"x_min":63,"x_max":688,"o":"m 592 1014 l 457 1014 l 374 1103 l 290 1014 l 157 1014 l 310 1174 l 438 1174 l 592 1014 m 489 350 l 375 881 l 263 350 l 489 350 m 688 0 l 564 0 l 511 246 l 240 246 l 186 0 l 63 0 l 297 972 l 457 972 l 688 0 z "},"Ã":{"ha":750,"x_min":63,"x_max":688,"o":"m 489 350 l 375 881 l 263 350 l 489 350 m 688 0 l 564 0 l 511 246 l 240 246 l 186 0 l 63 0 l 297 972 l 457 972 l 688 0 m 294 1167 l 315 1167 q 393 1139 332 1167 q 469 1111 454 1111 l 483 1111 q 557 1149 499 1111 l 576 1161 l 576 1061 q 482 1015 506 1015 l 461 1015 q 388 1043 453 1015 q 308 1071 324 1071 l 294 1071 q 210 1033 276 1071 l 188 1021 l 188 1121 q 294 1167 268 1167 z "},"Ä":{"ha":750,"x_min":63,"x_max":688,"o":"m 489 350 l 375 881 l 263 350 l 489 350 m 688 0 l 564 0 l 511 246 l 240 246 l 186 0 l 63 0 l 297 972 l 457 972 l 688 0 m 461 1021 l 461 1132 l 564 1132 l 579 1021 l 461 1021 m 301 1021 l 183 1021 l 183 1132 l 301 1132 l 301 1021 z "},"Å":{"ha":750,"x_min":63,"x_max":688,"o":"m 249 1029 l 249 1069 q 283 1158 249 1128 q 372 1188 317 1188 l 381 1188 q 470 1158 436 1188 q 504 1069 504 1128 l 504 1029 q 465 938 501 967 l 688 0 l 564 0 l 511 246 l 240 246 l 186 0 l 63 0 l 289 936 q 249 1029 249 968 m 489 350 l 375 881 l 263 350 l 489 350 m 425 1028 l 425 1071 q 381 1124 425 1124 l 372 1124 q 325 1071 325 1124 l 325 1028 q 372 975 325 975 l 381 975 q 425 1028 425 975 z "},"Æ":{"ha":750,"x_min":21,"x_max":719,"o":"m 719 0 l 426 0 l 406 246 l 196 246 l 138 0 l 21 0 l 265 972 l 692 972 l 692 871 l 451 871 l 483 553 l 685 553 l 685 451 l 494 451 l 529 101 l 719 101 l 719 0 m 343 871 l 221 350 l 393 350 l 343 871 z "},"Ç":{"ha":750,"x_min":151,"x_max":599,"o":"m 446 -278 l 328 -278 l 328 -189 l 421 -189 q 467 -146 467 -189 q 455 -114 467 -122 q 418 -106 443 -106 l 350 -106 l 350 3 q 151 236 151 26 l 151 736 q 216 913 151 854 q 401 972 281 972 l 599 972 l 599 867 l 388 867 q 304 836 336 867 q 272 763 272 806 l 272 210 q 304 136 272 167 q 388 106 336 106 l 599 106 l 599 0 l 447 0 l 447 -29 q 540 -53 511 -29 q 568 -133 568 -78 q 556 -217 568 -189 q 525 -258 544 -246 q 446 -278 490 -278 z "},"È":{"ha":750,"x_min":143,"x_max":607,"o":"m 489 1008 l 374 1008 l 190 1168 l 344 1168 l 489 1008 m 607 0 l 143 0 l 143 972 l 607 972 l 607 871 l 264 871 l 264 553 l 572 553 l 572 451 l 264 451 l 264 101 l 607 101 l 607 0 z "},"É":{"ha":750,"x_min":143,"x_max":607,"o":"m 368 1008 l 253 1008 l 397 1168 l 551 1168 l 368 1008 m 607 0 l 143 0 l 143 972 l 607 972 l 607 871 l 264 871 l 264 553 l 572 553 l 572 451 l 264 451 l 264 101 l 607 101 l 607 0 z "},"Ê":{"ha":750,"x_min":143,"x_max":607,"o":"m 593 1014 l 458 1014 l 375 1103 l 292 1014 l 158 1014 l 311 1174 l 439 1174 l 593 1014 m 607 0 l 143 0 l 143 972 l 607 972 l 607 871 l 264 871 l 264 553 l 572 553 l 572 451 l 264 451 l 264 101 l 607 101 l 607 0 z "},"Ë":{"ha":750,"x_min":143,"x_max":607,"o":"m 607 0 l 143 0 l 143 972 l 607 972 l 607 871 l 264 871 l 264 553 l 572 553 l 572 451 l 264 451 l 264 101 l 607 101 l 607 0 m 572 1021 l 454 1021 l 454 1132 l 572 1132 l 572 1021 m 294 1021 l 176 1021 l 176 1132 l 294 1132 l 294 1021 z "},"Ì":{"ha":750,"x_min":189,"x_max":564,"o":"m 488 1008 l 372 1008 l 189 1168 l 343 1168 l 488 1008 m 564 0 l 193 0 l 193 101 l 318 101 l 318 871 l 193 871 l 193 972 l 564 972 l 564 871 l 439 871 l 439 101 l 564 101 l 564 0 z "},"Í":{"ha":750,"x_min":189,"x_max":560,"o":"m 361 1008 l 246 1008 l 390 1168 l 544 1168 l 361 1008 m 560 0 l 189 0 l 189 101 l 314 101 l 314 871 l 189 871 l 189 972 l 560 972 l 560 871 l 435 871 l 435 101 l 560 101 l 560 0 z "},"Î":{"ha":750,"x_min":158,"x_max":593,"o":"m 593 1014 l 458 1014 l 375 1103 l 292 1014 l 158 1014 l 311 1174 l 439 1174 l 593 1014 m 561 0 l 190 0 l 190 101 l 315 101 l 315 871 l 190 871 l 190 972 l 561 972 l 561 871 l 436 871 l 436 101 l 561 101 l 561 0 z "},"Ï":{"ha":750,"x_min":178,"x_max":574,"o":"m 560 0 l 189 0 l 189 101 l 314 101 l 314 871 l 189 871 l 189 972 l 560 972 l 560 871 l 435 871 l 435 101 l 560 101 l 560 0 m 574 1021 l 456 1021 l 456 1132 l 574 1132 l 574 1021 m 296 1021 l 178 1021 l 178 1132 l 296 1132 l 296 1021 z "},"Ð":{"ha":750,"x_min":47,"x_max":649,"o":"m 649 219 q 594 50 649 100 q 413 0 539 0 l 126 0 l 126 451 l 47 451 l 47 556 l 126 556 l 126 972 l 396 972 q 585 922 521 972 q 649 756 649 871 l 649 219 m 528 206 l 528 768 q 500 841 528 814 q 426 868 472 868 l 247 868 l 247 556 l 408 556 l 408 451 l 247 451 l 247 104 l 425 104 q 503 128 478 104 q 528 206 528 153 z "},"Ñ":{"ha":750,"x_min":110,"x_max":639,"o":"m 639 0 l 440 0 l 222 869 l 222 0 l 110 0 l 110 972 l 307 972 l 526 103 l 526 972 l 639 972 l 639 0 m 292 1167 l 313 1167 q 390 1139 329 1167 q 467 1111 451 1111 l 481 1111 q 554 1149 496 1111 l 574 1161 l 574 1061 q 479 1015 503 1015 l 458 1015 q 385 1043 450 1015 q 306 1071 321 1071 l 292 1071 q 207 1033 274 1071 l 185 1021 l 185 1121 q 292 1167 265 1167 z "},"Ò":{"ha":750,"x_min":97,"x_max":653,"o":"m 488 1008 l 372 1008 l 189 1168 l 343 1168 l 488 1008 m 653 236 q 588 59 653 118 q 403 0 524 0 l 347 0 q 162 59 226 0 q 97 236 97 118 l 97 736 q 162 913 97 854 q 347 972 226 972 l 403 972 q 588 913 524 972 q 653 736 653 854 l 653 236 m 532 210 l 532 763 q 500 836 532 806 q 417 867 468 867 l 333 867 q 250 836 282 867 q 218 763 218 806 l 218 210 q 250 136 218 167 q 333 106 282 106 l 417 106 q 500 136 468 106 q 532 210 532 167 z "},"Ó":{"ha":750,"x_min":97,"x_max":653,"o":"m 371 1008 l 256 1008 l 400 1168 l 554 1168 l 371 1008 m 653 236 q 588 59 653 118 q 403 0 524 0 l 347 0 q 162 59 226 0 q 97 236 97 118 l 97 736 q 162 913 97 854 q 347 972 226 972 l 403 972 q 588 913 524 972 q 653 736 653 854 l 653 236 m 532 210 l 532 763 q 500 836 532 806 q 417 867 468 867 l 333 867 q 250 836 282 867 q 218 763 218 806 l 218 210 q 250 136 218 167 q 333 106 282 106 l 417 106 q 500 136 468 106 q 532 210 532 167 z "},"Ô":{"ha":750,"x_min":97,"x_max":653,"o":"m 592 1014 l 457 1014 l 374 1103 l 290 1014 l 157 1014 l 310 1174 l 438 1174 l 592 1014 m 653 236 q 588 59 653 118 q 403 0 524 0 l 347 0 q 162 59 226 0 q 97 236 97 118 l 97 736 q 162 913 97 854 q 347 972 226 972 l 403 972 q 588 913 524 972 q 653 736 653 854 l 653 236 m 532 210 l 532 763 q 500 836 532 806 q 417 867 468 867 l 333 867 q 250 836 282 867 q 218 763 218 806 l 218 210 q 250 136 218 167 q 333 106 282 106 l 417 106 q 500 136 468 106 q 532 210 532 167 z "},"Õ":{"ha":750,"x_min":97,"x_max":653,"o":"m 653 236 q 588 59 653 118 q 403 0 524 0 l 347 0 q 162 59 226 0 q 97 236 97 118 l 97 736 q 162 913 97 854 q 347 972 226 972 l 403 972 q 588 913 524 972 q 653 736 653 854 l 653 236 m 532 210 l 532 763 q 500 836 532 806 q 417 867 468 867 l 333 867 q 250 836 282 867 q 218 763 218 806 l 218 210 q 250 136 218 167 q 333 106 282 106 l 417 106 q 500 136 468 106 q 532 210 532 167 m 290 1167 l 311 1167 q 389 1139 328 1167 q 465 1111 450 1111 l 479 1111 q 553 1149 494 1111 l 572 1161 l 572 1061 q 478 1015 501 1015 l 457 1015 q 384 1043 449 1015 q 304 1071 319 1071 l 290 1071 q 206 1033 272 1071 l 183 1021 l 183 1121 q 290 1167 264 1167 z "},"Ö":{"ha":750,"x_min":97,"x_max":653,"o":"m 578 1021 l 460 1021 l 460 1132 l 578 1132 l 578 1021 m 300 1021 l 182 1021 l 182 1132 l 300 1132 l 300 1021 m 653 236 q 588 59 653 118 q 403 0 524 0 l 347 0 q 162 59 226 0 q 97 236 97 118 l 97 736 q 162 913 97 854 q 347 972 226 972 l 403 972 q 588 913 524 972 q 653 736 653 854 l 653 236 m 532 210 l 532 763 q 500 836 532 806 q 417 867 468 867 l 333 867 q 250 836 282 867 q 218 763 218 806 l 218 210 q 250 136 218 167 q 333 106 282 106 l 417 106 q 500 136 468 106 q 532 210 532 167 z "},"×":{"ha":750,"x_min":135,"x_max":615,"o":"m 538 190 l 375 351 l 213 190 l 135 268 l 296 431 l 135 593 l 213 671 l 375 510 l 538 671 l 615 593 l 454 431 l 615 268 l 538 190 z "},"Ø":{"ha":750,"x_min":97,"x_max":653,"o":"m 653 236 q 588 59 653 118 q 403 0 524 0 l 347 0 q 293 3 310 0 l 257 -126 l 151 -126 l 196 33 q 97 236 97 92 l 97 736 q 162 913 97 854 q 347 972 226 972 l 403 972 q 454 969 421 972 l 490 1099 l 596 1099 l 551 939 q 653 736 653 883 l 653 236 m 532 210 l 532 763 q 517 814 532 790 l 321 106 l 417 106 q 500 136 468 106 q 532 210 532 167 m 218 210 q 231 161 218 182 l 425 867 l 333 867 q 250 836 282 867 q 218 763 218 806 l 218 210 z "},"Ù":{"ha":750,"x_min":107,"x_max":642,"o":"m 460 1008 l 344 1008 l 161 1168 l 315 1168 l 460 1008 m 642 236 q 577 59 642 118 q 392 0 513 0 l 357 0 q 172 59 236 0 q 107 236 107 118 l 107 972 l 228 972 l 228 210 q 260 136 228 167 q 343 106 292 106 l 406 106 q 489 136 457 106 q 521 210 521 167 l 521 972 l 642 972 l 642 236 z "},"Ú":{"ha":750,"x_min":107,"x_max":642,"o":"m 408 1008 l 293 1008 l 438 1168 l 592 1168 l 408 1008 m 642 236 q 577 59 642 118 q 392 0 513 0 l 357 0 q 172 59 236 0 q 107 236 107 118 l 107 972 l 228 972 l 228 210 q 260 136 228 167 q 343 106 292 106 l 406 106 q 489 136 457 106 q 521 210 521 167 l 521 972 l 642 972 l 642 236 z "},"Û":{"ha":750,"x_min":107,"x_max":642,"o":"m 599 1014 l 464 1014 l 381 1103 l 297 1014 l 164 1014 l 317 1174 l 444 1174 l 599 1014 m 642 236 q 577 59 642 118 q 392 0 513 0 l 357 0 q 172 59 236 0 q 107 236 107 118 l 107 972 l 228 972 l 228 210 q 260 136 228 167 q 343 106 292 106 l 406 106 q 489 136 457 106 q 521 210 521 167 l 521 972 l 642 972 l 642 236 z "},"Ü":{"ha":750,"x_min":107,"x_max":642,"o":"m 575 1021 l 457 1021 l 457 1132 l 575 1132 l 575 1021 m 297 1021 l 179 1021 l 179 1132 l 297 1132 l 297 1021 m 642 236 q 577 59 642 118 q 392 0 513 0 l 357 0 q 172 59 236 0 q 107 236 107 118 l 107 972 l 228 972 l 228 210 q 260 136 228 167 q 343 106 292 106 l 406 106 q 489 136 457 106 q 521 210 521 167 l 521 972 l 642 972 l 642 236 z "},"Ý":{"ha":750,"x_min":61,"x_max":688,"o":"m 374 1008 l 258 1008 l 403 1168 l 557 1168 l 374 1008 m 435 0 l 310 0 l 310 451 l 61 972 l 194 972 l 378 568 l 561 972 l 688 972 l 435 451 l 435 0 z "},"Þ":{"ha":750,"x_min":131,"x_max":632,"o":"m 632 417 q 396 197 632 197 l 251 197 l 251 0 l 131 0 l 131 972 l 251 972 l 251 792 l 393 792 q 632 575 632 792 l 632 417 m 511 403 l 511 588 q 487 664 511 640 q 410 688 463 688 l 251 688 l 251 301 l 410 301 q 487 326 463 301 q 511 403 511 350 z "},"ß":{"ha":750,"x_min":108,"x_max":647,"o":"m 226 0 l 108 0 l 108 778 q 168 924 108 875 q 317 972 228 972 l 371 972 q 550 920 493 972 q 607 750 607 868 l 607 576 l 499 576 q 440 561 457 576 q 422 514 422 546 l 422 493 q 482 431 422 431 q 603 386 558 431 q 647 264 647 342 l 647 174 q 599 48 647 96 q 456 0 550 0 l 300 0 l 300 104 l 464 104 q 529 167 529 104 l 529 264 q 462 326 529 326 q 349 372 394 326 q 304 494 304 418 l 304 508 q 351 634 304 597 q 489 675 399 671 l 489 778 q 385 868 489 868 l 310 868 q 245 844 264 868 q 226 792 226 821 l 226 0 z "},"à":{"ha":750,"x_min":93,"x_max":656,"o":"m 656 0 l 579 0 q 503 42 538 0 q 418 0 471 0 l 294 0 q 141 42 189 0 q 93 188 93 85 l 93 215 q 296 431 93 431 l 468 431 l 468 500 q 364 590 468 590 l 149 590 l 149 694 l 350 694 q 528 642 471 694 q 586 472 586 589 l 586 139 q 656 97 586 97 l 656 0 m 404 104 q 461 129 450 104 q 468 174 468 149 l 468 326 l 294 326 q 235 303 258 326 q 211 243 211 279 l 211 174 q 228 121 211 138 q 281 104 244 104 l 404 104 m 475 806 l 356 806 l 186 993 l 331 993 l 475 806 z "},"á":{"ha":750,"x_min":93,"x_max":656,"o":"m 656 0 l 579 0 q 503 42 538 0 q 418 0 471 0 l 294 0 q 141 42 189 0 q 93 188 93 85 l 93 215 q 296 431 93 431 l 468 431 l 468 500 q 364 590 468 590 l 149 590 l 149 694 l 350 694 q 528 642 471 694 q 586 472 586 589 l 586 139 q 656 97 586 97 l 656 0 m 404 104 q 461 129 450 104 q 468 174 468 149 l 468 326 l 294 326 q 235 303 258 326 q 211 243 211 279 l 211 174 q 228 121 211 138 q 281 104 244 104 l 404 104 m 400 806 l 281 806 l 425 993 l 569 993 l 400 806 z "},"â":{"ha":750,"x_min":93,"x_max":656,"o":"m 656 0 l 579 0 q 503 42 538 0 q 418 0 471 0 l 294 0 q 141 42 189 0 q 93 188 93 85 l 93 215 q 296 431 93 431 l 468 431 l 468 500 q 364 590 468 590 l 149 590 l 149 694 l 350 694 q 528 642 471 694 q 586 472 586 589 l 586 139 q 656 97 586 97 l 656 0 m 404 104 q 461 129 450 104 q 468 174 468 149 l 468 326 l 294 326 q 235 303 258 326 q 211 243 211 279 l 211 174 q 228 121 211 138 q 281 104 244 104 l 404 104 m 571 806 l 436 806 l 353 910 l 269 806 l 136 806 l 292 993 l 414 993 l 571 806 z "},"ã":{"ha":750,"x_min":93,"x_max":656,"o":"m 656 0 l 579 0 q 503 42 538 0 q 418 0 471 0 l 294 0 q 141 42 189 0 q 93 188 93 85 l 93 215 q 296 431 93 431 l 468 431 l 468 500 q 364 590 468 590 l 149 590 l 149 694 l 350 694 q 528 642 471 694 q 586 472 586 589 l 586 139 q 656 97 586 97 l 656 0 m 404 104 q 461 129 450 104 q 468 174 468 149 l 468 326 l 294 326 q 235 303 258 326 q 211 243 211 279 l 211 174 q 228 121 211 138 q 281 104 244 104 l 404 104 m 254 972 l 275 972 q 353 944 292 972 q 429 917 414 917 l 443 917 q 517 954 458 917 l 536 967 l 536 867 q 442 821 465 821 l 421 821 q 348 849 413 821 q 268 876 283 876 l 254 876 q 169 839 236 876 l 147 826 l 147 926 q 254 972 228 972 z "},"ä":{"ha":750,"x_min":93,"x_max":656,"o":"m 656 0 l 579 0 q 503 42 538 0 q 418 0 471 0 l 294 0 q 141 42 189 0 q 93 188 93 85 l 93 215 q 296 431 93 431 l 468 431 l 468 500 q 364 590 468 590 l 149 590 l 149 694 l 350 694 q 528 642 471 694 q 586 472 586 589 l 586 139 q 656 97 586 97 l 656 0 m 404 104 q 461 129 450 104 q 468 174 468 149 l 468 326 l 294 326 q 235 303 258 326 q 211 243 211 279 l 211 174 q 228 121 211 138 q 281 104 244 104 l 404 104 m 543 826 l 425 826 l 425 938 l 543 938 l 543 826 m 265 826 l 147 826 l 147 938 l 265 938 l 265 826 z "},"å":{"ha":750,"x_min":93,"x_max":656,"o":"m 478 879 q 443 792 478 822 q 354 761 408 761 l 346 761 q 257 792 292 761 q 222 879 222 822 l 222 919 q 256 1008 222 978 q 346 1038 290 1038 l 354 1038 q 444 1008 410 1038 q 478 919 478 978 l 478 879 m 399 878 l 399 921 q 354 974 399 974 l 346 974 q 299 921 299 974 l 299 878 q 346 825 299 825 l 354 825 q 399 878 399 825 m 656 0 l 579 0 q 503 42 538 0 q 418 0 471 0 l 294 0 q 141 42 189 0 q 93 188 93 85 l 93 215 q 296 431 93 431 l 468 431 l 468 500 q 364 590 468 590 l 149 590 l 149 694 l 350 694 q 528 642 471 694 q 586 472 586 589 l 586 139 q 656 97 586 97 l 656 0 m 404 104 q 461 129 450 104 q 468 174 468 149 l 468 326 l 294 326 q 235 303 258 326 q 211 243 211 279 l 211 174 q 228 121 211 138 q 281 104 244 104 l 404 104 z "},"æ":{"ha":750,"x_min":35,"x_max":717,"o":"m 672 0 l 549 0 q 379 65 415 0 q 242 0 344 0 l 222 0 q 82 44 129 0 q 35 188 35 88 l 35 204 q 231 419 35 419 l 322 419 l 322 500 q 229 590 322 590 l 83 590 l 83 694 l 215 694 q 382 643 322 694 q 440 683 411 671 q 521 694 468 694 l 531 694 q 672 640 628 694 q 717 479 717 586 l 717 318 l 438 318 l 438 183 q 535 101 442 101 l 672 101 l 672 0 m 322 171 l 322 318 l 226 318 q 170 294 190 318 q 150 232 150 269 l 150 171 q 167 118 150 135 q 219 101 183 101 l 256 101 q 322 171 322 101 m 438 503 l 438 419 l 604 419 l 604 510 q 585 570 604 547 q 532 593 567 593 l 521 593 q 455 571 472 593 q 438 503 438 549 z "},"ç":{"ha":750,"x_min":167,"x_max":582,"o":"m 432 -278 l 314 -278 l 314 -189 l 407 -189 q 453 -146 453 -189 q 441 -114 453 -122 q 404 -106 429 -106 l 336 -106 l 336 4 q 208 69 250 17 q 167 222 167 121 l 167 472 q 224 642 167 589 q 403 694 282 694 l 582 694 l 582 590 l 389 590 q 285 500 285 590 l 285 194 q 389 104 285 104 l 582 104 l 582 0 l 433 0 l 433 -29 q 526 -53 497 -29 q 554 -133 554 -78 q 542 -217 554 -189 q 511 -258 531 -246 q 432 -278 476 -278 z "},"è":{"ha":750,"x_min":131,"x_max":618,"o":"m 574 0 l 367 0 q 188 52 244 0 q 131 222 131 104 l 131 472 q 182 643 131 592 q 353 694 233 694 l 418 694 q 618 479 618 694 l 618 299 l 249 299 l 249 194 q 353 104 249 104 l 574 104 l 574 0 m 249 500 l 249 403 l 503 403 l 503 507 q 479 567 503 543 q 419 590 456 590 l 339 590 q 269 567 289 590 q 249 500 249 544 m 507 806 l 388 806 l 218 993 l 363 993 l 507 806 z "},"é":{"ha":750,"x_min":131,"x_max":618,"o":"m 574 0 l 367 0 q 188 52 244 0 q 131 222 131 104 l 131 472 q 182 643 131 592 q 353 694 233 694 l 418 694 q 618 479 618 694 l 618 299 l 249 299 l 249 194 q 353 104 249 104 l 574 104 l 574 0 m 249 500 l 249 403 l 503 403 l 503 507 q 479 567 503 543 q 419 590 456 590 l 339 590 q 269 567 289 590 q 249 500 249 544 m 422 806 l 303 806 l 447 993 l 592 993 l 422 806 z "},"ê":{"ha":750,"x_min":131,"x_max":618,"o":"m 574 0 l 367 0 q 188 52 244 0 q 131 222 131 104 l 131 472 q 182 643 131 592 q 353 694 233 694 l 418 694 q 618 479 618 694 l 618 299 l 249 299 l 249 194 q 353 104 249 104 l 574 104 l 574 0 m 249 500 l 249 403 l 503 403 l 503 507 q 479 567 503 543 q 419 590 456 590 l 339 590 q 269 567 289 590 q 249 500 249 544 m 594 806 l 460 806 l 376 910 l 293 806 l 160 806 l 315 993 l 438 993 l 594 806 z "},"ë":{"ha":750,"x_min":131,"x_max":618,"o":"m 574 0 l 367 0 q 188 52 244 0 q 131 222 131 104 l 131 472 q 182 643 131 592 q 353 694 233 694 l 418 694 q 618 479 618 694 l 618 299 l 249 299 l 249 194 q 353 104 249 104 l 574 104 l 574 0 m 249 500 l 249 403 l 503 403 l 503 507 q 479 567 503 543 q 419 590 456 590 l 339 590 q 269 567 289 590 q 249 500 249 544 m 581 826 l 463 826 l 463 938 l 581 938 l 581 826 m 303 826 l 185 826 l 185 938 l 303 938 l 303 826 z "},"ì":{"ha":750,"x_min":111,"x_max":639,"o":"m 496 806 l 376 806 l 207 993 l 351 993 l 496 806 m 639 0 l 315 0 l 315 590 l 111 590 l 111 694 l 433 694 l 433 104 l 639 104 l 639 0 z "},"í":{"ha":750,"x_min":111,"x_max":639,"o":"m 404 806 l 285 806 l 429 993 l 574 993 l 404 806 m 639 0 l 315 0 l 315 590 l 111 590 l 111 694 l 433 694 l 433 104 l 639 104 l 639 0 z "},"î":{"ha":750,"x_min":111,"x_max":639,"o":"m 597 806 l 463 806 l 379 910 l 296 806 l 163 806 l 318 993 l 440 993 l 597 806 m 639 0 l 315 0 l 315 590 l 111 590 l 111 694 l 433 694 l 433 104 l 639 104 l 639 0 z "},"ï":{"ha":750,"x_min":111,"x_max":639,"o":"m 574 826 l 456 826 l 456 938 l 574 938 l 574 826 m 296 826 l 178 826 l 178 938 l 296 938 l 296 826 m 639 0 l 315 0 l 315 590 l 111 590 l 111 694 l 433 694 l 433 104 l 639 104 l 639 0 z "},"ð":{"ha":750,"x_min":131,"x_max":618,"o":"m 204 869 l 204 972 l 369 972 l 411 1042 l 525 1042 l 475 958 q 618 736 618 914 l 618 236 q 556 61 618 122 q 399 0 493 0 l 350 0 q 193 61 256 0 q 131 236 131 122 l 131 417 q 188 586 131 533 q 364 639 244 639 l 500 639 l 500 763 q 478 826 500 797 q 421 864 457 854 l 375 786 l 261 786 l 310 869 l 204 869 m 500 535 l 350 535 q 249 443 249 535 l 249 210 q 278 135 249 165 q 357 104 307 104 l 392 104 q 471 135 442 104 q 500 210 500 165 l 500 535 z "},"ñ":{"ha":750,"x_min":121,"x_max":629,"o":"m 239 0 l 121 0 l 121 694 l 232 694 l 232 661 q 343 694 275 694 l 407 694 q 574 642 519 694 q 629 472 629 589 l 629 0 l 511 0 l 511 500 q 487 566 511 542 q 421 590 463 590 l 329 590 q 261 566 283 590 q 239 514 239 542 l 239 0 m 297 972 l 318 972 q 396 944 335 972 q 472 917 457 917 l 486 917 q 560 954 501 917 l 579 967 l 579 867 q 485 821 508 821 l 464 821 q 391 849 456 821 q 311 876 326 876 l 297 876 q 213 839 279 876 l 190 826 l 190 926 q 297 972 271 972 z "},"ò":{"ha":750,"x_min":110,"x_max":628,"o":"m 628 222 q 570 53 628 106 q 392 0 513 0 l 346 0 q 167 53 225 0 q 110 222 110 106 l 110 472 q 167 642 110 589 q 346 694 225 694 l 392 694 q 570 642 513 694 q 628 472 628 589 l 628 222 m 510 194 l 510 500 q 406 590 510 590 l 332 590 q 228 500 228 590 l 228 194 q 332 104 228 104 l 406 104 q 510 194 510 104 m 507 806 l 388 806 l 218 993 l 363 993 l 507 806 z "},"ó":{"ha":750,"x_min":115,"x_max":633,"o":"m 633 222 q 576 53 633 106 q 397 0 518 0 l 351 0 q 173 53 231 0 q 115 222 115 106 l 115 472 q 173 642 115 589 q 351 694 231 694 l 397 694 q 576 642 518 694 q 633 472 633 589 l 633 222 m 515 194 l 515 500 q 411 590 515 590 l 338 590 q 233 500 233 590 l 233 194 q 338 104 233 104 l 411 104 q 515 194 515 104 m 354 806 l 235 806 l 379 993 l 524 993 l 354 806 z "},"ô":{"ha":750,"x_min":115,"x_max":633,"o":"m 633 222 q 576 53 633 106 q 397 0 518 0 l 351 0 q 173 53 231 0 q 115 222 115 106 l 115 472 q 173 642 115 589 q 351 694 231 694 l 397 694 q 576 642 518 694 q 633 472 633 589 l 633 222 m 515 194 l 515 500 q 411 590 515 590 l 338 590 q 233 500 233 590 l 233 194 q 338 104 233 104 l 411 104 q 515 194 515 104 m 593 806 l 458 806 l 375 910 l 292 806 l 158 806 l 314 993 l 436 993 l 593 806 z "},"õ":{"ha":750,"x_min":115,"x_max":633,"o":"m 633 222 q 576 53 633 106 q 397 0 518 0 l 351 0 q 173 53 231 0 q 115 222 115 106 l 115 472 q 173 642 115 589 q 351 694 231 694 l 397 694 q 576 642 518 694 q 633 472 633 589 l 633 222 m 515 194 l 515 500 q 411 590 515 590 l 338 590 q 233 500 233 590 l 233 194 q 338 104 233 104 l 411 104 q 515 194 515 104 m 288 972 l 308 972 q 386 944 325 972 q 463 917 447 917 l 476 917 q 550 954 492 917 l 569 967 l 569 867 q 475 821 499 821 l 454 821 q 381 849 446 821 q 301 876 317 876 l 288 876 q 203 839 269 876 l 181 826 l 181 926 q 288 972 261 972 z "},"ö":{"ha":750,"x_min":115,"x_max":633,"o":"m 633 222 q 576 53 633 106 q 397 0 518 0 l 351 0 q 173 53 231 0 q 115 222 115 106 l 115 472 q 173 642 115 589 q 351 694 231 694 l 397 694 q 576 642 518 694 q 633 472 633 589 l 633 222 m 515 194 l 515 500 q 411 590 515 590 l 338 590 q 233 500 233 590 l 233 194 q 338 104 233 104 l 411 104 q 515 194 515 104 m 574 826 l 456 826 l 456 938 l 574 938 l 574 826 m 296 826 l 178 826 l 178 938 l 296 938 l 296 826 z "},"÷":{"ha":750,"x_min":111,"x_max":639,"o":"m 639 382 l 111 382 l 111 486 l 639 486 l 639 382 m 444 90 l 306 90 l 306 229 l 444 229 l 444 90 m 444 639 l 306 639 l 306 778 l 444 778 l 444 639 z "},"ø":{"ha":750,"x_min":115,"x_max":633,"o":"m 633 222 q 576 53 633 106 q 397 0 518 0 l 324 0 l 286 -124 l 178 -124 l 221 21 q 115 222 115 67 l 115 472 q 173 642 115 589 q 351 694 231 694 l 397 694 q 425 693 417 694 l 464 818 l 571 818 l 526 672 q 633 472 633 626 l 633 222 m 233 194 q 254 132 233 156 l 394 590 l 338 590 q 233 500 233 590 l 233 194 m 515 194 l 515 500 q 493 561 515 539 l 354 104 l 411 104 q 515 194 515 104 z "},"ù":{"ha":750,"x_min":129,"x_max":621,"o":"m 621 0 l 510 0 l 510 32 q 399 0 464 0 l 351 0 q 184 53 239 0 q 129 222 129 106 l 129 694 l 247 694 l 247 194 q 272 128 247 153 q 338 104 296 104 l 413 104 q 478 126 457 104 q 503 176 500 149 l 503 694 l 621 694 l 621 0 m 476 806 l 357 806 l 188 993 l 332 993 l 476 806 z "},"ú":{"ha":750,"x_min":129,"x_max":621,"o":"m 621 0 l 510 0 l 510 32 q 399 0 464 0 l 351 0 q 184 53 239 0 q 129 222 129 106 l 129 694 l 247 694 l 247 194 q 272 128 247 153 q 338 104 296 104 l 413 104 q 478 126 457 104 q 503 176 500 149 l 503 694 l 621 694 l 621 0 m 421 806 l 301 806 l 446 993 l 590 993 l 421 806 z "},"û":{"ha":750,"x_min":129,"x_max":621,"o":"m 621 0 l 510 0 l 510 32 q 399 0 464 0 l 351 0 q 184 53 239 0 q 129 222 129 106 l 129 694 l 247 694 l 247 194 q 272 128 247 153 q 338 104 296 104 l 413 104 q 478 126 457 104 q 503 176 500 149 l 503 694 l 621 694 l 621 0 m 592 806 l 457 806 l 374 910 l 290 806 l 157 806 l 313 993 l 435 993 l 592 806 z "},"ü":{"ha":750,"x_min":129,"x_max":621,"o":"m 621 0 l 510 0 l 510 32 q 399 0 464 0 l 351 0 q 184 53 239 0 q 129 222 129 106 l 129 694 l 247 694 l 247 194 q 272 128 247 153 q 338 104 296 104 l 413 104 q 478 126 457 104 q 503 176 500 149 l 503 694 l 621 694 l 621 0 m 569 826 l 451 826 l 451 938 l 569 938 l 569 826 m 292 826 l 174 826 l 174 938 l 292 938 l 292 826 z "},"ý":{"ha":750,"x_min":88,"x_max":661,"o":"m 192 -132 l 250 -132 q 300 -119 283 -132 q 325 -76 317 -107 l 344 0 l 317 0 l 88 694 l 215 694 l 389 113 l 540 694 l 661 694 l 446 -75 q 377 -206 419 -176 q 258 -236 335 -236 l 192 -236 l 192 -132 m 390 806 l 271 806 l 415 993 l 560 993 l 390 806 z "},"þ":{"ha":750,"x_min":135,"x_max":629,"o":"m 253 -236 l 135 -236 l 135 972 l 253 972 l 253 -236 m 629 222 q 629 472 629 222 q 572 642 629 590 q 393 694 515 694 l 357 694 q 174 554 218 694 l 253 514 q 275 566 253 542 q 343 590 297 590 q 407 590 343 590 q 511 500 511 590 l 511 194 q 407 104 511 104 l 211 104 l 211 0 l 393 0 q 572 53 514 0 q 629 222 629 106 z "},"ÿ":{"ha":750,"x_min":88,"x_max":661,"o":"m 192 -132 l 250 -132 q 300 -119 283 -132 q 325 -76 317 -107 l 344 0 l 317 0 l 88 694 l 215 694 l 389 113 l 540 694 l 661 694 l 446 -75 q 377 -206 419 -176 q 258 -236 335 -236 l 192 -236 l 192 -132 m 572 826 l 454 826 l 454 938 l 572 938 l 572 826 m 294 826 l 176 826 l 176 938 l 294 938 l 294 826 z "},"ı":{"ha":750,"x_min":111,"x_max":639,"o":"m 639 0 l 315 0 l 315 590 l 111 590 l 111 694 l 433 694 l 433 104 l 639 104 l 639 0 z "},"Ł":{"ha":750,"x_min":104,"x_max":660,"o":"m 660 0 l 229 0 l 229 476 l 104 417 l 104 528 l 229 588 l 229 972 l 350 972 l 350 646 l 507 722 l 507 611 l 350 535 l 350 106 l 660 106 l 660 0 z "},"ł":{"ha":750,"x_min":97,"x_max":653,"o":"m 653 0 l 419 0 q 337 33 372 0 q 301 139 301 67 l 301 449 l 188 417 l 188 525 l 301 558 l 301 868 l 97 868 l 97 972 l 419 972 l 419 592 l 564 635 l 564 525 l 419 483 l 419 146 q 431 114 419 124 q 468 104 442 104 l 653 104 l 653 0 z "},"Œ":{"ha":750,"x_min":36,"x_max":726,"o":"m 726 0 l 286 0 q 101 59 165 0 q 36 236 36 118 l 36 736 q 101 913 36 854 q 286 972 165 972 l 726 972 l 726 871 l 482 871 q 515 736 515 808 l 515 553 l 706 553 l 706 451 l 515 451 l 515 236 q 482 101 515 161 l 726 101 l 726 0 m 394 210 l 394 763 q 363 836 394 806 q 279 867 331 867 l 272 867 q 189 836 221 867 q 157 763 157 806 l 157 210 q 189 136 157 167 q 272 106 221 106 l 279 106 q 363 136 331 106 q 394 210 394 167 z "},"œ":{"ha":750,"x_min":36,"x_max":717,"o":"m 679 0 l 551 0 q 389 54 431 0 q 333 13 364 26 q 244 0 303 0 l 240 0 q 84 51 132 0 q 36 215 36 103 l 36 479 q 84 645 36 596 q 240 694 132 694 l 244 694 q 328 681 299 694 q 386 640 358 667 q 532 694 431 694 l 533 694 q 672 646 628 694 q 717 493 717 597 l 717 299 l 449 299 l 449 192 q 549 101 449 101 l 679 101 l 679 0 m 333 192 l 333 503 q 258 593 333 593 l 226 593 q 151 503 151 593 l 151 192 q 226 101 151 101 l 258 101 q 333 192 333 101 m 449 503 l 449 400 l 604 400 l 604 510 q 532 593 604 593 l 528 593 q 465 571 481 593 q 449 503 449 549 z "},"Š":{"ha":750,"x_min":139,"x_max":610,"o":"m 175 1174 l 310 1174 l 393 1081 l 476 1174 l 610 1174 l 454 1014 l 332 1014 l 175 1174 m 610 236 q 545 59 610 118 q 360 0 481 0 l 163 0 l 163 106 l 374 106 q 457 136 425 106 q 489 210 489 167 l 489 354 q 467 422 489 396 q 403 447 446 447 l 361 447 q 199 508 258 447 q 139 683 139 568 l 139 736 q 203 913 139 854 q 389 972 268 972 l 588 972 l 588 867 l 375 867 q 292 836 324 867 q 260 763 260 806 l 260 657 q 288 585 260 614 q 360 557 315 557 l 401 557 q 555 500 500 557 q 610 328 610 443 l 610 236 z "},"š":{"ha":750,"x_min":154,"x_max":600,"o":"m 576 174 q 368 0 576 0 l 161 0 l 161 104 l 382 104 q 458 167 458 104 l 458 240 q 399 303 458 303 l 347 303 q 202 345 250 303 q 154 479 154 388 l 154 519 q 207 653 154 613 q 363 694 260 694 l 549 694 l 549 590 l 349 590 q 293 574 314 590 q 272 528 272 558 l 272 478 q 291 431 272 446 q 339 415 310 415 l 386 415 q 576 236 576 415 l 576 174 m 165 992 l 300 992 l 383 888 l 467 992 l 600 992 l 444 804 l 322 804 l 165 992 z "},"Ÿ":{"ha":750,"x_min":61,"x_max":688,"o":"m 435 0 l 310 0 l 310 451 l 61 972 l 194 972 l 378 568 l 561 972 l 688 972 l 435 451 l 435 0 m 574 1021 l 456 1021 l 456 1132 l 574 1132 l 574 1021 m 296 1021 l 178 1021 l 178 1132 l 296 1132 l 296 1021 z "},"Ž":{"ha":750,"x_min":121,"x_max":626,"o":"m 179 1174 l 314 1174 l 397 1081 l 481 1174 l 614 1174 l 458 1014 l 336 1014 l 179 1174 m 613 103 l 613 0 l 121 0 l 121 122 l 501 869 l 153 869 l 153 972 l 626 972 l 626 850 l 247 103 l 613 103 z "},"ž":{"ha":750,"x_min":232,"x_max":697,"o":"m 674 103 l 674 0 l 232 0 l 232 111 l 557 592 l 260 592 l 260 694 l 688 694 l 688 571 l 365 103 l 674 103 m 263 992 l 397 992 l 481 888 l 564 992 l 697 992 l 542 804 l 419 804 l 263 992 z "},"ƒ":{"ha":750,"x_min":110,"x_max":668,"o":"m 668 868 l 479 868 q 444 856 457 868 q 431 826 431 844 l 431 694 l 654 694 l 654 590 l 431 590 l 431 -83 q 390 -195 431 -154 q 286 -236 350 -236 l 110 -236 l 110 -132 l 264 -132 q 299 -120 286 -132 q 313 -90 313 -108 l 313 590 l 194 590 l 194 694 l 313 694 l 313 819 q 353 931 313 890 q 457 972 393 972 l 668 972 l 668 868 z "},"ˆ":{"ha":750,"x_min":157,"x_max":592,"o":"m 592 806 l 457 806 l 374 910 l 290 806 l 157 806 l 313 993 l 435 993 l 592 806 z "},"ˇ":{"ha":750,"x_min":157,"x_max":592,"o":"m 157 992 l 292 992 l 375 888 l 458 992 l 592 992 l 436 804 l 314 804 l 157 992 z "},"ˉ":{"ha":750,"x_min":197,"x_max":551,"o":"m 551 840 l 197 840 l 197 938 l 551 938 l 551 840 z "},"˘":{"ha":750,"x_min":178,"x_max":572,"o":"m 389 901 q 444 925 431 901 q 458 993 458 949 l 572 993 q 530 867 572 922 q 389 813 488 813 l 361 813 q 220 867 263 813 q 178 993 178 922 l 292 993 q 306 925 292 949 q 361 901 319 901 l 389 901 z "},"˙":{"ha":750,"x_min":315,"x_max":433,"o":"m 433 854 l 315 854 l 315 972 l 433 972 l 433 854 z "},"˚":{"ha":750,"x_min":247,"x_max":503,"o":"m 503 879 q 468 792 503 822 q 379 761 433 761 l 371 761 q 282 792 317 761 q 247 879 247 822 l 247 919 q 281 1008 247 978 q 371 1038 315 1038 l 379 1038 q 469 1008 435 1038 q 503 919 503 978 l 503 879 m 424 878 l 424 921 q 379 974 424 974 l 371 974 q 324 921 324 974 l 324 878 q 371 825 324 825 l 379 825 q 424 878 424 825 z "},"˛":{"ha":750,"x_min":251,"x_max":497,"o":"m 497 -250 l 374 -250 q 264 -189 289 -250 q 251 -118 251 -161 l 251 83 l 354 83 l 354 -118 q 399 -157 354 -157 l 497 -157 l 497 -250 z "},"˜":{"ha":750,"x_min":181,"x_max":569,"o":"m 288 972 l 308 972 q 386 944 325 972 q 463 917 447 917 l 476 917 q 550 954 492 917 l 569 967 l 569 867 q 475 821 499 821 l 454 821 q 381 849 446 821 q 301 876 317 876 l 288 876 q 203 839 269 876 l 181 826 l 181 926 q 288 972 261 972 z "},"˝":{"ha":750,"x_min":107,"x_max":646,"o":"m 410 1035 l 233 831 l 107 831 l 250 1035 l 410 1035 m 646 1035 l 469 831 l 343 831 l 486 1035 l 646 1035 z "},"μ":{"ha":750,"x_min":143,"x_max":607,"o":"m 261 -236 l 143 -236 l 143 694 l 261 694 l 261 194 q 285 128 261 153 q 351 104 310 104 l 399 104 q 467 128 444 104 q 489 181 489 153 l 489 694 l 607 694 l 607 0 l 496 0 l 496 32 q 385 0 450 0 l 365 0 q 261 14 303 0 l 261 -236 z "},"π":{"ha":750,"x_min":67,"x_max":683,"o":"m 294 0 l 176 0 l 176 593 l 67 593 l 67 694 l 683 694 l 683 593 l 558 593 l 558 146 q 569 114 558 124 q 607 104 581 104 l 628 104 l 628 0 l 558 0 q 476 33 511 0 q 440 139 440 67 l 440 593 l 294 593 l 294 0 z "},"–":{"ha":750,"x_min":111,"x_max":639,"o":"m 639 382 l 111 382 l 111 486 l 639 486 l 639 382 z "},"—":{"ha":750,"x_min":44,"x_max":704,"o":"m 704 382 l 44 382 l 44 486 l 704 486 l 704 382 z "},"‘":{"ha":750,"x_min":288,"x_max":461,"o":"m 419 628 l 288 628 l 288 753 l 364 971 l 461 971 l 419 753 l 419 628 z "},"’":{"ha":750,"x_min":288,"x_max":461,"o":"m 329 972 l 461 972 l 461 847 l 385 629 l 288 629 l 329 847 l 329 972 z "},"‚":{"ha":750,"x_min":288,"x_max":461,"o":"m 329 125 l 461 125 l 461 0 l 385 -218 l 288 -218 l 329 0 l 329 125 z "},"“":{"ha":750,"x_min":181,"x_max":569,"o":"m 313 628 l 181 628 l 181 753 l 257 971 l 354 971 l 313 753 l 313 628 m 528 628 l 396 628 l 396 753 l 472 971 l 569 971 l 528 753 l 528 628 z "},"”":{"ha":750,"x_min":181,"x_max":569,"o":"m 438 972 l 569 972 l 569 847 l 493 629 l 396 629 l 438 847 l 438 972 m 222 972 l 354 972 l 354 847 l 278 629 l 181 629 l 222 847 l 222 972 z "},"„":{"ha":750,"x_min":181,"x_max":569,"o":"m 438 125 l 569 125 l 569 0 l 493 -218 l 396 -218 l 438 0 l 438 125 m 222 125 l 354 125 l 354 0 l 278 -218 l 181 -218 l 222 0 l 222 125 z "},"†":{"ha":750,"x_min":124,"x_max":625,"o":"m 431 0 l 319 0 l 319 590 l 124 590 l 124 694 l 319 694 l 319 972 l 431 972 l 431 694 l 625 694 l 625 590 l 431 590 l 431 0 z "},"‡":{"ha":750,"x_min":124,"x_max":625,"o":"m 431 0 l 319 0 l 319 292 l 124 292 l 124 396 l 319 396 l 319 590 l 124 590 l 124 694 l 319 694 l 319 972 l 431 972 l 431 694 l 625 694 l 625 590 l 431 590 l 431 396 l 625 396 l 625 292 l 431 292 l 431 0 z "},"•":{"ha":750,"x_min":271,"x_max":479,"o":"m 479 326 l 271 326 l 271 542 l 479 542 l 479 326 z "},"…":{"ha":750,"x_min":56,"x_max":694,"o":"m 194 0 l 56 0 l 56 139 l 194 139 l 194 0 m 444 0 l 306 0 l 306 139 l 444 139 l 444 0 m 694 0 l 556 0 l 556 139 l 694 139 l 694 0 z "},"‰":{"ha":750,"x_min":13,"x_max":738,"o":"m 735 519 l 19 418 l 19 504 l 735 606 l 735 519 m 363 739 q 318 606 363 651 q 193 561 274 561 l 182 561 q 57 606 101 561 q 13 739 13 651 l 13 794 q 57 927 13 882 q 182 972 101 972 l 193 972 q 318 927 274 972 q 363 794 363 882 l 363 739 m 265 724 l 265 810 q 247 867 265 844 q 193 889 229 889 l 182 889 q 128 867 146 889 q 110 810 110 844 l 110 724 q 128 667 110 689 q 182 644 146 644 l 193 644 q 247 667 229 644 q 265 724 265 689 m 363 178 q 318 45 363 90 q 193 0 274 0 l 182 0 q 57 45 101 0 q 13 178 13 90 l 13 233 q 57 366 13 321 q 182 411 101 411 l 193 411 q 318 366 274 411 q 363 233 363 321 l 363 178 m 265 163 l 265 249 q 247 306 265 283 q 193 328 229 328 l 182 328 q 128 306 146 328 q 110 249 110 283 l 110 163 q 128 106 110 128 q 182 83 146 83 l 193 83 q 247 106 229 83 q 265 163 265 128 m 738 178 q 693 45 738 90 q 568 0 649 0 l 557 0 q 432 45 476 0 q 388 178 388 90 l 388 233 q 432 366 388 321 q 557 411 476 411 l 568 411 q 693 366 649 411 q 738 233 738 321 l 738 178 m 640 163 l 640 249 q 622 306 640 283 q 568 328 604 328 l 557 328 q 503 306 521 328 q 485 249 485 283 l 485 163 q 503 106 485 128 q 557 83 521 83 l 568 83 q 622 106 604 83 q 640 163 640 128 z "},"‹":{"ha":750,"x_min":267,"x_max":482,"o":"m 482 128 l 390 128 l 267 415 l 390 703 l 482 703 l 394 415 l 482 128 z "},"›":{"ha":750,"x_min":267,"x_max":482,"o":"m 358 128 l 267 128 l 354 415 l 267 703 l 358 703 l 482 415 l 358 128 z "},"⁄":{"ha":750,"x_min":146,"x_max":604,"o":"m 604 1125 l 249 -153 l 146 -153 l 501 1125 l 604 1125 z "},"€":{"ha":750,"x_min":124,"x_max":626,"o":"m 576 667 l 576 565 l 342 565 l 342 431 l 576 431 l 576 329 l 342 329 l 342 210 q 374 136 342 167 q 457 106 406 106 l 626 106 l 626 0 l 471 0 q 285 59 350 0 q 221 236 221 118 l 221 329 l 124 329 l 124 431 l 221 431 l 221 565 l 124 565 l 124 667 l 221 667 l 221 736 q 285 913 221 854 q 471 972 350 972 l 626 972 l 626 867 l 457 867 q 374 836 406 867 q 342 763 342 806 l 342 667 l 576 667 z "},"™":{"ha":750,"x_min":19,"x_max":728,"o":"m 728 269 l 636 269 l 636 853 l 563 501 l 489 501 l 414 853 l 414 269 l 324 269 l 324 890 l 233 890 l 233 269 l 139 269 l 139 890 l 19 890 l 19 972 l 471 972 l 529 685 l 585 972 l 728 972 l 728 269 z "},"Ω":{"ha":750,"x_min":63,"x_max":688,"o":"m 688 0 l 433 0 l 433 106 q 497 137 471 106 q 524 210 524 168 l 524 763 q 492 836 524 806 q 408 867 460 867 l 333 867 q 250 836 282 867 q 218 763 218 806 l 218 210 q 247 137 218 168 q 317 106 275 106 l 317 0 l 63 0 l 63 106 l 131 106 q 97 236 97 165 l 97 736 q 162 913 97 854 q 347 972 226 972 l 394 972 q 580 913 515 972 q 644 736 644 854 l 644 236 q 613 106 644 163 l 688 106 l 688 0 z "},"∂":{"ha":750,"x_min":133,"x_max":621,"o":"m 133 236 l 133 389 q 190 558 133 506 q 367 611 247 611 l 503 611 l 503 763 q 471 836 503 806 q 388 867 439 867 l 200 867 l 200 972 l 374 972 q 621 736 621 972 l 621 236 q 558 61 621 122 q 401 0 496 0 l 353 0 q 196 61 258 0 q 133 236 133 122 m 503 507 l 353 507 q 251 415 251 507 l 251 210 q 281 135 251 165 q 360 104 310 104 l 394 104 q 474 135 444 104 q 503 210 503 165 l 503 507 z "},"∆":{"ha":750,"x_min":69,"x_max":681,"o":"m 681 0 l 69 0 l 303 972 l 457 972 l 681 0 m 531 104 l 379 868 l 219 104 l 531 104 z "},"∏":{"ha":750,"x_min":60,"x_max":690,"o":"m 290 0 l 169 0 l 169 868 l 60 868 l 60 972 l 690 972 l 690 868 l 564 868 l 564 146 q 574 114 564 124 q 610 104 583 104 l 631 104 l 631 0 l 561 0 q 478 33 514 0 q 443 139 443 67 l 443 868 l 290 868 l 290 0 z "},"∑":{"ha":750,"x_min":107,"x_max":642,"o":"m 642 -236 l 107 -236 l 107 -106 l 340 371 l 125 840 l 125 972 l 626 972 l 626 868 l 247 868 l 472 371 l 226 -133 l 642 -133 l 642 -236 z "},"−":{"ha":750,"x_min":111,"x_max":639,"o":"m 639 382 l 111 382 l 111 486 l 639 486 l 639 382 z "},"∕":{"ha":750,"x_min":97,"x_max":653,"o":"m 653 1125 l 208 -139 l 97 -139 l 542 1125 l 653 1125 z "},"∙":{"ha":750,"x_min":306,"x_max":444,"o":"m 444 361 l 306 361 l 306 500 l 444 500 l 444 361 z "},"√":{"ha":750,"x_min":31,"x_max":718,"o":"m 718 1035 l 571 1035 l 342 0 l 168 0 l 31 544 l 154 544 l 254 113 l 472 1139 l 718 1139 l 718 1035 z "},"∞":{"ha":750,"x_min":18,"x_max":732,"o":"m 228 196 l 214 196 q 61 249 104 196 q 18 414 18 303 l 18 442 q 61 606 18 553 q 214 660 104 660 l 228 660 q 378 586 326 660 q 522 660 429 660 l 536 660 q 689 606 646 660 q 732 442 732 553 l 732 421 q 688 253 732 310 q 536 196 644 196 l 522 196 q 375 269 426 196 q 228 196 324 196 m 622 392 l 622 475 q 599 542 619 522 q 529 563 579 563 l 519 563 q 432 472 438 563 l 432 392 q 519 293 432 293 l 529 293 q 602 316 582 293 q 622 392 622 339 m 128 464 l 128 381 q 151 313 131 333 q 221 293 171 293 l 231 293 q 318 383 313 293 l 318 464 q 231 563 318 563 l 221 563 q 148 540 168 563 q 128 464 128 517 z "},"∤":{"ha":750,"x_min":306,"x_max":444,"o":"m 444 361 l 306 361 l 306 500 l 444 500 l 444 361 z "},"∧":{"ha":750,"x_min":306,"x_max":444,"o":"m 444 361 l 306 361 l 306 500 l 444 500 l 444 361 z "},"∫":{"ha":750,"x_min":96,"x_max":654,"o":"m 96 -222 l 264 -222 q 299 -210 286 -222 q 313 -181 313 -199 l 313 986 q 353 1098 313 1057 q 457 1139 393 1139 l 654 1139 l 654 1035 l 479 1035 q 444 1023 457 1035 q 431 993 431 1011 l 431 -174 q 390 -285 431 -244 q 286 -326 350 -326 l 96 -326 l 96 -222 z "},"≈":{"ha":750,"x_min":139,"x_max":611,"o":"m 274 636 l 294 636 q 386 608 311 636 q 476 581 461 581 l 490 581 q 585 618 506 581 l 611 631 l 611 519 q 489 471 513 471 l 468 471 q 381 499 460 471 q 288 526 303 526 l 274 526 q 168 489 256 526 l 139 476 l 139 588 q 274 636 247 636 m 274 401 l 294 401 q 386 374 311 401 q 476 346 461 346 l 490 346 q 585 383 506 346 l 611 396 l 611 285 q 489 236 513 236 l 468 236 q 381 264 460 236 q 288 292 303 292 l 274 292 q 168 254 256 292 l 139 242 l 139 353 q 274 401 247 401 z "},"≠":{"ha":750,"x_min":111,"x_max":639,"o":"m 639 521 l 485 521 l 376 347 l 639 347 l 639 243 l 313 243 l 222 97 l 111 97 l 201 243 l 111 243 l 111 347 l 265 347 l 374 521 l 111 521 l 111 625 l 438 625 l 528 771 l 639 771 l 549 625 l 639 625 l 639 521 z "},"≤":{"ha":750,"x_min":111,"x_max":639,"o":"m 639 174 l 111 389 l 111 535 l 639 783 l 639 656 l 211 467 l 639 304 l 639 174 m 639 0 l 111 0 l 111 104 l 639 104 l 639 0 z "},"≥":{"ha":750,"x_min":111,"x_max":639,"o":"m 639 389 l 111 174 l 111 304 l 539 467 l 111 656 l 111 783 l 639 535 l 639 389 m 639 0 l 111 0 l 111 104 l 639 104 l 639 0 z "},"⋅":{"ha":750,"x_min":306,"x_max":444,"o":"m 444 361 l 306 361 l 306 500 l 444 500 l 444 361 z "},"▯":{"ha":750,"x_min":117,"x_max":633,"o":"m 117 0 l 117 972 l 633 972 l 633 0 l 117 0 m 221 100 l 529 100 l 529 872 l 221 872 l 221 100 z "},"◊":{"ha":750,"x_min":104,"x_max":646,"o":"m 646 486 l 451 0 l 296 0 l 104 486 l 299 972 l 451 972 l 646 486 m 525 486 l 375 875 l 225 486 l 375 97 l 525 486 z "},"ﬁ":{"ha":750,"x_min":306,"x_max":444,"o":"m 444 361 l 306 361 l 306 500 l 444 500 l 444 361 z "},"ﬂ":{"ha":750,"x_min":306,"x_max":444,"o":"m 444 361 l 306 361 l 306 500 l 444 500 l 444 361 z "}}}
